<?xml version="1.0" encoding="UTF-8"?>
<svg xmlns="http://www.w3.org/2000/svg" xmlns:xlink="http://www.w3.org/1999/xlink" width="512px" height="512px" viewBox="0 0 512 512" version="1.1">
<g id="surface1">
<rect x="0" y="0" width="512" height="512" style="fill:rgb(19.607843%,21.960784%,27.843139%);fill-opacity:1;stroke:none;"/>
<path style=" stroke:none;fill-rule:nonzero;fill:rgb(3.921569%,47.450981%,73.725492%);fill-opacity:1;" d="M 411.519531 112.640625 L 417.921875 112.640625 L 416.640625 115.839844 L 414.078125 119.679688 L 398.71875 141.441406 L 393.601562 148.480469 L 385.28125 160 L 358.398438 196.480469 L 344.960938 214.398438 L 333.441406 227.199219 L 327.039062 232.960938 L 316.800781 239.359375 L 278.398438 262.398438 L 264.960938 270.078125 L 248.320312 279.679688 L 238.71875 285.441406 L 215.679688 299.519531 L 202.238281 307.839844 L 192.640625 313.601562 L 180.480469 321.28125 L 170.878906 327.039062 L 163.199219 330.878906 L 159.359375 330.238281 L 156.160156 327.039062 L 156.160156 323.199219 L 159.359375 319.359375 L 174.078125 310.398438 L 189.441406 300.800781 L 202.238281 293.121094 L 215.679688 284.800781 L 229.761719 276.480469 L 258.558594 259.199219 L 272.640625 250.878906 L 290.558594 240 L 309.121094 229.121094 L 319.359375 222.71875 L 326.398438 217.601562 L 329.601562 212.480469 L 332.160156 209.921875 L 334.71875 216.320312 L 334.078125 218.878906 L 338.558594 218.878906 L 336.640625 214.398438 L 332.160156 208 L 326.398438 199.679688 L 320.640625 193.28125 L 316.800781 188.800781 L 316.160156 187.519531 L 316.160156 183.679688 L 321.921875 176.640625 L 325.761719 172.160156 L 327.679688 167.039062 L 319.359375 170.238281 L 310.398438 174.71875 L 307.839844 174.71875 L 298.878906 163.839844 L 291.839844 156.160156 L 282.878906 145.921875 L 280.960938 144.640625 L 280.960938 143.359375 L 278.398438 142.078125 L 268.160156 131.839844 L 268.160156 129.921875 L 299.519531 125.441406 L 323.199219 122.238281 L 376.960938 116.480469 L 387.839844 115.199219 L 403.839844 113.921875 Z M 411.519531 112.640625 "/>
<path style=" stroke:none;fill-rule:nonzero;fill:rgb(32.549021%,94.901961%,99.215686%);fill-opacity:1;" d="M 247.039062 80.640625 L 269.441406 80.640625 L 282.878906 82.558594 L 293.761719 85.121094 L 305.28125 88.960938 L 316.160156 94.078125 L 327.039062 100.480469 L 336 107.519531 L 336 108.800781 L 329.601562 110.078125 L 312.960938 112.640625 L 309.121094 112.640625 L 305.921875 110.71875 L 298.878906 107.519531 L 288 103.679688 L 287.359375 103.039062 L 278.398438 101.761719 L 268.800781 101.121094 L 254.078125 101.121094 L 241.28125 102.398438 L 225.28125 106.238281 L 215.039062 110.078125 L 201.601562 117.121094 L 193.28125 122.878906 L 184.960938 129.921875 L 180.480469 134.398438 L 173.441406 143.359375 L 168.960938 149.761719 L 164.480469 157.441406 L 161.921875 163.839844 L 158.71875 171.519531 L 154.878906 183.679688 L 153.601562 190.078125 L 150.398438 192 L 144 195.199219 L 134.398438 202.878906 L 133.121094 202.878906 L 133.761719 192 L 136.320312 176 L 140.800781 160.640625 L 147.839844 145.28125 L 153.601562 135.679688 L 159.359375 128 L 165.121094 120.960938 L 169.601562 115.839844 L 174.71875 111.359375 L 181.761719 104.960938 L 190.078125 99.199219 L 200.960938 92.800781 L 214.398438 87.039062 L 229.121094 83.199219 L 240.640625 81.28125 Z M 247.039062 80.640625 "/>
<path style=" stroke:none;fill-rule:nonzero;fill:rgb(5.098039%,56.078434%,80.784315%);fill-opacity:1;" d="M 380.160156 183.039062 L 381.441406 183.039062 L 383.359375 188.800781 L 384.640625 197.121094 L 385.28125 210.558594 L 384 223.359375 L 380.800781 238.078125 L 376.960938 249.601562 L 372.480469 259.839844 L 365.441406 272 L 360.320312 279.039062 L 354.558594 286.078125 L 348.160156 293.121094 L 343.039062 297.601562 L 333.441406 305.28125 L 323.199219 311.679688 L 313.601562 316.800781 L 304 320.640625 L 291.199219 324.480469 L 282.878906 326.398438 L 269.441406 327.679688 L 255.359375 327.679688 L 243.839844 326.398438 L 231.039062 323.199219 L 218.238281 318.71875 L 211.839844 315.519531 L 212.480469 313.601562 L 222.71875 307.199219 L 224.640625 307.199219 L 224.640625 305.921875 L 227.839844 303.359375 L 233.601562 304 L 247.039062 306.558594 L 252.800781 307.199219 L 274.558594 307.199219 L 285.441406 305.28125 L 298.238281 301.441406 L 309.761719 296.320312 L 318.71875 290.558594 L 324.480469 286.078125 L 330.878906 280.320312 L 339.839844 271.359375 L 346.238281 263.039062 L 353.28125 251.519531 L 358.398438 240 L 362.878906 225.921875 L 366.078125 211.839844 L 366.71875 200.960938 L 368.640625 197.761719 L 373.761719 192 Z M 380.160156 183.039062 "/>
<path style=" stroke:none;fill-rule:nonzero;fill:rgb(33.333334%,95.686275%,99.607843%);fill-opacity:1;" d="M 411.519531 112.640625 L 417.921875 112.640625 L 416.640625 115.839844 L 412.800781 118.398438 L 406.398438 120.960938 L 401.28125 123.519531 L 399.359375 124.160156 L 398.71875 125.441406 L 395.519531 126.078125 L 395.519531 127.359375 L 387.199219 132.480469 L 375.679688 139.519531 L 368.640625 144.640625 L 352.640625 153.601562 L 337.28125 162.558594 L 328.320312 166.398438 L 316.800781 171.519531 L 310.398438 174.71875 L 307.839844 174.71875 L 298.878906 163.839844 L 291.839844 156.160156 L 282.878906 145.921875 L 280.960938 144.640625 L 280.960938 143.359375 L 278.398438 142.078125 L 268.160156 131.839844 L 268.160156 129.921875 L 299.519531 125.441406 L 323.199219 122.238281 L 376.960938 116.480469 L 387.839844 115.199219 L 403.839844 113.921875 Z M 411.519531 112.640625 "/>
<path style=" stroke:none;fill-rule:nonzero;fill:rgb(32.549021%,94.509804%,99.215686%);fill-opacity:1;" d="M 302.71875 183.679688 L 305.28125 184.320312 L 307.839844 187.519531 L 309.761719 192 L 309.121094 195.199219 L 300.800781 201.601562 L 292.480469 206.71875 L 280.960938 213.761719 L 263.039062 224.640625 L 250.238281 232.320312 L 241.921875 237.441406 L 227.839844 245.761719 L 215.039062 253.441406 L 203.519531 260.480469 L 190.71875 268.160156 L 174.078125 278.398438 L 164.480469 284.160156 L 128.640625 305.921875 L 116.480469 312.960938 L 103.039062 321.921875 L 90.878906 329.601562 L 88.960938 330.238281 L 88.960938 328.320312 L 93.441406 323.839844 L 98.558594 319.359375 L 101.761719 317.441406 L 106.238281 314.238281 L 99.199219 318.078125 L 92.160156 322.558594 L 87.679688 325.121094 L 85.121094 325.121094 L 84.480469 323.839844 L 84.480469 318.71875 L 90.878906 314.238281 L 105.601562 304.640625 L 113.921875 299.519531 L 129.921875 289.28125 L 154.238281 273.921875 L 167.679688 265.601562 L 184.320312 255.359375 L 199.679688 245.761719 L 215.679688 236.160156 L 230.398438 227.199219 L 238.71875 222.078125 L 256.640625 211.199219 L 279.039062 197.761719 L 290.558594 190.71875 Z M 302.71875 183.679688 "/>
<path style=" stroke:none;fill-rule:nonzero;fill:rgb(7.058824%,65.098041%,88.627452%);fill-opacity:1;" d="M 415.359375 115.839844 L 416 117.121094 L 407.679688 128.640625 L 401.921875 136.960938 L 394.238281 147.839844 L 386.558594 158.078125 L 380.160156 167.039062 L 370.558594 179.839844 L 365.441406 186.878906 L 359.039062 195.839844 L 357.761719 195.839844 L 357.761719 193.921875 L 359.039062 193.921875 L 359.679688 190.078125 L 362.238281 185.601562 L 364.160156 179.839844 L 358.398438 181.761719 L 354.558594 183.679688 L 350.71875 184.960938 L 350.71875 186.238281 L 349.441406 186.238281 L 349.441406 187.519531 L 348.160156 187.519531 L 348.160156 188.800781 L 343.679688 192.640625 L 342.398438 192.640625 L 342.398438 193.921875 L 337.28125 198.398438 L 334.71875 203.519531 L 332.160156 206.078125 L 330.878906 206.078125 L 324.480469 197.121094 L 318.078125 190.71875 L 316.160156 187.519531 L 316.160156 183.679688 L 321.921875 176.640625 L 325.761719 172.160156 L 327.679688 167.039062 L 326.398438 166.398438 L 334.71875 163.199219 L 347.519531 156.160156 L 353.921875 152.320312 L 368.640625 144 L 377.601562 137.601562 L 387.199219 131.839844 L 394.238281 127.359375 L 395.519531 127.359375 L 395.519531 126.078125 L 398.71875 125.441406 L 399.359375 123.519531 L 405.121094 120.960938 L 410.238281 118.398438 L 414.71875 116.480469 Z M 415.359375 115.839844 "/>
<path style=" stroke:none;fill-rule:nonzero;fill:rgb(33.333334%,94.901961%,99.215686%);fill-opacity:1;" d="M 259.839844 134.398438 L 263.039062 134.398438 L 267.519531 139.519531 L 269.441406 142.71875 L 268.800781 145.28125 L 262.398438 149.761719 L 252.800781 155.519531 L 244.480469 160.640625 L 232.320312 168.320312 L 222.078125 174.71875 L 207.359375 183.679688 L 193.28125 192.640625 L 179.839844 200.960938 L 170.238281 206.71875 L 158.078125 214.398438 L 144.640625 222.71875 L 137.601562 227.199219 L 125.441406 234.878906 L 115.199219 240.640625 L 112 241.921875 L 108.160156 241.921875 L 108.160156 240 L 106.878906 240 L 106.238281 234.238281 L 108.160156 230.398438 L 115.839844 224.640625 L 132.480469 213.761719 L 144.640625 206.078125 L 152.960938 200.960938 L 167.039062 192 L 179.199219 184.320312 L 192.640625 176 L 207.359375 166.398438 L 218.878906 159.359375 L 234.238281 149.761719 L 247.679688 141.441406 L 258.558594 135.039062 Z M 259.839844 134.398438 "/>
<path style=" stroke:none;fill-rule:nonzero;fill:rgb(28.235295%,87.843138%,97.647059%);fill-opacity:1;" d="M 380.160156 183.039062 L 381.441406 183.039062 L 383.359375 188.800781 L 384.640625 197.121094 L 385.28125 210.558594 L 384 223.359375 L 380.800781 238.078125 L 376.960938 249.601562 L 373.761719 256 L 369.921875 254.71875 L 366.078125 257.921875 L 362.878906 259.839844 L 357.761719 259.199219 L 355.199219 261.761719 L 348.800781 271.359375 L 343.039062 278.398438 L 334.71875 286.71875 L 332.160156 287.359375 L 331.519531 289.921875 L 325.761719 293.761719 L 322.558594 295.039062 L 321.921875 296.960938 L 315.519531 300.800781 L 305.921875 305.921875 L 294.398438 310.398438 L 281.601562 313.601562 L 268.160156 314.878906 L 259.199219 314.878906 L 243.839844 312.960938 L 231.039062 309.761719 L 229.121094 308.480469 L 225.28125 307.199219 L 227.199219 304 L 227.839844 303.359375 L 233.601562 304 L 247.039062 306.558594 L 252.800781 307.199219 L 274.558594 307.199219 L 285.441406 305.28125 L 298.238281 301.441406 L 309.761719 296.320312 L 318.71875 290.558594 L 324.480469 286.078125 L 330.878906 280.320312 L 339.839844 271.359375 L 346.238281 263.039062 L 353.28125 251.519531 L 358.398438 240 L 362.878906 225.921875 L 366.078125 211.839844 L 366.71875 200.960938 L 368.640625 197.761719 L 373.761719 192 Z M 380.160156 183.039062 "/>
<path style=" stroke:none;fill-rule:nonzero;fill:rgb(3.529412%,5.490196%,12.941177%);fill-opacity:1;" d="M 309.121094 194.558594 L 312.320312 195.199219 L 315.519531 200.320312 L 312.320312 203.519531 L 296.320312 212.480469 L 282.238281 220.800781 L 264.320312 231.679688 L 245.121094 243.199219 L 231.679688 251.519531 L 218.878906 259.199219 L 206.71875 266.878906 L 193.921875 274.558594 L 180.480469 282.878906 L 165.761719 291.839844 L 147.839844 302.71875 L 132.480469 312.320312 L 131.839844 313.601562 L 130.558594 313.601562 L 130.558594 314.878906 L 128.640625 314.878906 L 128.640625 316.160156 L 122.238281 318.71875 L 119.679688 321.921875 L 113.921875 324.480469 L 112 326.398438 L 107.519531 328.960938 L 106.878906 330.238281 L 104.320312 330.878906 L 103.679688 327.039062 L 104.960938 323.839844 L 106.238281 323.839844 L 106.878906 318.71875 L 119.679688 310.398438 L 136.320312 300.800781 L 152.960938 290.558594 L 165.761719 282.878906 L 192 266.878906 L 204.800781 259.199219 L 221.441406 248.960938 L 249.601562 232.320312 L 261.761719 224.640625 L 272.640625 218.238281 L 282.238281 212.480469 L 293.761719 205.441406 L 302.71875 199.679688 Z M 309.121094 194.558594 "/>
<path style=" stroke:none;fill-rule:nonzero;fill:rgb(2.352941%,3.921569%,16.470589%);fill-opacity:1;" d="M 298.238281 176.640625 L 299.519531 176.640625 L 300.800781 181.761719 L 300.800781 184.960938 L 295.039062 188.800781 L 286.078125 193.921875 L 277.761719 199.039062 L 259.839844 209.921875 L 243.839844 219.519531 L 232.320312 226.558594 L 199.679688 246.398438 L 172.800781 263.039062 L 156.160156 273.28125 L 140.800781 282.878906 L 131.839844 288.640625 L 124.160156 293.761719 L 118.398438 293.121094 L 117.761719 291.199219 L 118.398438 289.28125 L 115.839844 289.28125 L 115.839844 288 L 117.761719 288 L 117.761719 286.71875 L 124.800781 282.878906 L 137.601562 275.199219 L 146.558594 269.441406 L 152.960938 265.601562 L 161.28125 260.480469 L 173.441406 252.800781 L 191.359375 241.921875 L 204.800781 233.601562 L 218.878906 225.28125 L 229.121094 218.878906 L 254.71875 203.519531 L 266.238281 196.480469 L 279.039062 188.800781 L 293.121094 180.480469 L 297.601562 177.921875 Z M 298.238281 176.640625 "/>
<path style=" stroke:none;fill-rule:nonzero;fill:rgb(2.352941%,3.921569%,16.078432%);fill-opacity:1;" d="M 318.71875 209.921875 L 320 211.199219 L 318.71875 215.039062 L 318.71875 216.320312 L 323.199219 217.601562 L 321.921875 219.519531 L 321.921875 221.441406 L 312.320312 227.839844 L 293.761719 238.71875 L 274.558594 250.238281 L 260.480469 258.558594 L 209.28125 289.28125 L 195.839844 297.601562 L 177.921875 308.480469 L 167.679688 314.878906 L 158.71875 320.640625 L 156.800781 323.199219 L 147.839844 324.480469 L 144.640625 325.121094 L 143.359375 324.480469 L 142.71875 325.761719 L 138.878906 324.480469 L 139.519531 322.558594 L 151.679688 314.878906 L 161.921875 308.480469 L 173.441406 301.441406 L 202.238281 284.160156 L 216.960938 275.199219 L 230.398438 266.878906 L 240 261.121094 L 266.238281 245.761719 L 274.558594 240.640625 L 296.320312 227.839844 L 308.480469 220.800781 L 314.878906 215.679688 L 316.800781 213.121094 L 318.078125 213.121094 Z M 318.71875 209.921875 "/>
<path style=" stroke:none;fill-rule:nonzero;fill:rgb(2.352941%,3.921569%,16.078432%);fill-opacity:1;" d="M 283.519531 161.28125 L 284.800781 161.921875 L 284.800781 163.199219 L 287.359375 163.839844 L 289.28125 165.761719 L 288 168.960938 L 273.28125 177.28125 L 258.558594 186.238281 L 243.199219 195.839844 L 230.398438 203.519531 L 212.480469 214.398438 L 197.121094 224 L 179.199219 234.878906 L 163.839844 244.480469 L 151.679688 252.160156 L 136.960938 261.121094 L 122.878906 270.078125 L 116.480469 274.558594 L 113.28125 276.480469 L 112.640625 277.761719 L 110.078125 278.398438 L 106.238281 277.761719 L 105.601562 276.480469 L 99.839844 275.839844 L 103.039062 272.640625 L 116.480469 264.320312 L 126.078125 258.558594 L 138.238281 250.878906 L 147.839844 245.121094 L 165.761719 234.238281 L 176.640625 227.199219 L 192.640625 217.601562 L 214.398438 204.160156 L 227.199219 196.480469 L 242.558594 186.878906 L 255.359375 179.199219 L 263.679688 174.078125 L 273.921875 167.679688 L 282.878906 161.921875 Z M 283.519531 161.28125 "/>
<path style=" stroke:none;fill-rule:nonzero;fill:rgb(98.039216%,93.333334%,58.431375%);fill-opacity:1;" d="M 273.28125 151.679688 L 277.121094 152.320312 L 280.320312 155.519531 L 279.679688 158.078125 L 273.921875 160 L 263.679688 165.761719 L 249.601562 174.71875 L 232.960938 184.960938 L 204.800781 202.238281 L 189.441406 211.839844 L 176.640625 219.519531 L 162.558594 228.480469 L 145.921875 238.71875 L 133.761719 246.398438 L 125.441406 251.519531 L 104.320312 264.960938 L 97.28125 268.800781 L 94.71875 268.800781 L 94.71875 263.679688 L 99.839844 259.199219 L 112.640625 250.878906 L 128.640625 240.640625 L 142.078125 232.320312 L 154.238281 224.640625 L 169.601562 215.039062 L 184.320312 206.078125 L 230.398438 177.28125 L 242.558594 169.601562 L 257.28125 160.640625 L 266.878906 154.878906 Z M 273.28125 151.679688 "/>
<path style=" stroke:none;fill-rule:nonzero;fill:rgb(91.764706%,36.078432%,3.529412%);fill-opacity:1;" d="M 280.320312 156.800781 L 282.238281 159.359375 L 281.601562 163.199219 L 273.921875 168.320312 L 262.398438 175.359375 L 252.160156 181.761719 L 239.359375 189.441406 L 224 199.039062 L 214.398438 204.800781 L 199.679688 213.761719 L 191.359375 218.878906 L 178.558594 226.558594 L 167.679688 233.601562 L 151.039062 243.839844 L 138.238281 251.519531 L 128 257.921875 L 110.078125 268.800781 L 100.480469 274.558594 L 97.28125 273.28125 L 94.078125 269.441406 L 94.078125 264.960938 L 94.71875 264.960938 L 94.71875 268.800781 L 101.121094 266.238281 L 107.519531 262.398438 L 118.398438 255.359375 L 126.71875 250.238281 L 138.878906 242.558594 L 154.238281 232.960938 L 167.679688 224.640625 L 179.839844 216.960938 L 192.640625 209.28125 L 208 199.679688 L 222.71875 190.71875 L 232.960938 184.320312 L 249.601562 174.078125 L 261.761719 166.398438 L 270.71875 161.28125 L 277.121094 158.078125 Z M 280.320312 156.800781 "/>
<path style=" stroke:none;fill-rule:nonzero;fill:rgb(5.098039%,55.686277%,80.392158%);fill-opacity:1;" d="M 307.839844 190.71875 L 309.121094 190.71875 L 309.761719 194.558594 L 302.078125 200.960938 L 292.480469 206.71875 L 280.960938 213.761719 L 263.039062 224.640625 L 250.238281 232.320312 L 241.921875 237.441406 L 227.839844 245.761719 L 215.039062 253.441406 L 203.519531 260.480469 L 190.71875 268.160156 L 174.078125 278.398438 L 164.480469 284.160156 L 128.640625 305.921875 L 116.480469 312.960938 L 103.039062 321.921875 L 90.878906 329.601562 L 88.960938 330.238281 L 88.960938 328.320312 L 93.441406 323.839844 L 98.558594 319.359375 L 101.761719 317.441406 L 106.238281 314.238281 L 106.878906 312.320312 L 113.921875 308.480469 L 133.121094 296.320312 L 136.960938 294.398438 L 140.160156 291.839844 L 152.320312 284.160156 L 167.679688 274.558594 L 184.320312 264.320312 L 193.921875 258.558594 L 223.359375 240.640625 L 236.800781 232.320312 L 242.558594 228.480469 L 249.601562 224.640625 L 263.039062 216.320312 L 275.839844 208.640625 L 284.160156 203.519531 L 288.640625 200.320312 L 293.121094 198.398438 L 304 192 Z M 307.839844 190.71875 "/>
<path style=" stroke:none;fill-rule:nonzero;fill:rgb(32.156864%,94.509804%,99.215686%);fill-opacity:1;" d="M 327.039062 216.960938 L 329.601562 217.601562 L 329.601562 222.078125 L 327.039062 226.558594 L 318.71875 232.320312 L 304.640625 240.640625 L 291.199219 248.960938 L 268.800781 262.398438 L 253.441406 271.359375 L 232.960938 283.519531 L 224.640625 288.640625 L 206.71875 299.519531 L 199.679688 304 L 183.679688 313.601562 L 176.640625 318.078125 L 165.761719 324.480469 L 164.480469 324.480469 L 164.480469 325.761719 L 161.921875 327.039062 L 159.359375 329.601562 L 156.160156 327.039062 L 156.160156 323.199219 L 159.359375 319.359375 L 174.078125 310.398438 L 189.441406 300.800781 L 202.238281 293.121094 L 215.679688 284.800781 L 229.761719 276.480469 L 258.558594 259.199219 L 272.640625 250.878906 L 290.558594 240 L 309.121094 229.121094 L 319.359375 222.71875 L 326.398438 217.601562 Z M 327.039062 216.960938 "/>
<path style=" stroke:none;fill-rule:nonzero;fill:rgb(98.039216%,93.333334%,58.431375%);fill-opacity:1;" d="M 314.878906 201.601562 L 317.441406 201.601562 L 318.71875 204.160156 L 318.71875 207.359375 L 316.800781 209.28125 L 310.398438 212.480469 L 299.519531 218.878906 L 284.160156 227.839844 L 255.359375 245.121094 L 241.28125 253.441406 L 227.839844 261.761719 L 215.039062 269.441406 L 198.398438 279.679688 L 183.679688 288.640625 L 170.878906 296.320312 L 155.519531 305.921875 L 140.800781 314.878906 L 133.761719 319.359375 L 131.199219 319.359375 L 131.199219 313.601562 L 134.398438 310.398438 L 149.121094 301.441406 L 167.039062 290.558594 L 180.480469 282.238281 L 195.199219 273.28125 L 213.121094 262.398438 L 225.28125 254.71875 L 238.078125 247.039062 L 251.519531 238.71875 L 272 226.558594 L 283.519531 219.519531 L 302.078125 208.640625 Z M 314.878906 201.601562 "/>
<path style=" stroke:none;fill-rule:nonzero;fill:rgb(97.647059%,92.156863%,57.254905%);fill-opacity:1;" d="M 288.640625 167.679688 L 291.839844 168.320312 L 295.039062 171.519531 L 295.679688 173.441406 L 289.28125 176 L 273.921875 184.960938 L 259.839844 193.28125 L 245.121094 202.238281 L 228.480469 212.480469 L 215.679688 220.160156 L 200.320312 229.761719 L 186.238281 238.078125 L 171.519531 247.679688 L 158.71875 255.359375 L 144.640625 264.320312 L 131.199219 272.640625 L 115.839844 281.601562 L 113.28125 282.238281 L 113.28125 277.761719 L 117.121094 273.28125 L 128 266.238281 L 140.160156 258.558594 L 154.878906 249.601562 L 168.960938 240.640625 L 182.398438 232.320312 L 200.320312 221.441406 L 215.679688 211.839844 L 228.480469 204.160156 L 246.398438 193.28125 L 261.761719 183.679688 L 279.039062 173.441406 Z M 288.640625 167.679688 "/>
<path style=" stroke:none;fill-rule:nonzero;fill:rgb(3.529412%,5.098039%,12.54902%);fill-opacity:1;" d="M 270.078125 144 L 270.71875 145.28125 L 270.078125 146.558594 L 273.28125 147.839844 L 274.558594 151.039062 L 273.28125 151.039062 L 273.28125 152.320312 L 261.121094 158.71875 L 230.398438 177.921875 L 216.960938 186.238281 L 204.800781 193.921875 L 177.921875 210.558594 L 161.28125 220.800781 L 147.199219 229.761719 L 130.558594 240 L 114.558594 250.238281 L 111.359375 252.160156 L 108.800781 251.519531 L 109.441406 248.960938 L 110.71875 245.121094 L 115.199219 242.558594 L 115.199219 241.921875 L 113.921875 241.921875 L 113.921875 240.640625 L 123.519531 235.519531 L 137.601562 226.558594 L 163.199219 210.558594 L 171.519531 205.441406 L 186.238281 196.480469 L 200.320312 187.519531 L 213.761719 179.199219 L 222.078125 174.078125 L 237.441406 164.480469 L 267.519531 145.921875 Z M 270.078125 144 "/>
<path style=" stroke:none;fill-rule:nonzero;fill:rgb(91.764706%,36.078432%,3.529412%);fill-opacity:1;" d="M 318.078125 207.359375 L 318.71875 209.28125 L 316.160156 215.039062 L 310.398438 220.160156 L 299.519531 226.558594 L 273.28125 241.921875 L 264.960938 247.039062 L 254.078125 253.441406 L 238.71875 262.398438 L 224 271.359375 L 210.558594 279.679688 L 175.359375 300.800781 L 167.039062 305.921875 L 156.800781 312.320312 L 143.359375 320.640625 L 136.960938 324.480469 L 133.761719 322.558594 L 131.839844 319.359375 L 136.960938 316.800781 L 149.121094 309.121094 L 167.039062 298.238281 L 180.480469 289.921875 L 193.28125 282.238281 L 209.921875 272 L 225.921875 262.398438 L 241.28125 252.800781 L 266.238281 238.078125 L 298.238281 218.878906 L 309.761719 212.480469 L 314.878906 209.28125 Z M 318.078125 207.359375 "/>
<path style=" stroke:none;fill-rule:nonzero;fill:rgb(90.980393%,35.294119%,3.529412%);fill-opacity:1;" d="M 295.679688 172.800781 L 297.601562 175.359375 L 296.960938 177.921875 L 295.039062 179.839844 L 279.039062 189.441406 L 268.160156 195.839844 L 259.839844 200.960938 L 234.238281 216.320312 L 219.519531 225.28125 L 206.078125 233.601562 L 192 241.921875 L 179.839844 249.601562 L 173.441406 253.441406 L 163.199219 259.839844 L 146.558594 270.078125 L 136.320312 276.480469 L 119.679688 286.71875 L 115.199219 287.359375 L 113.921875 282.238281 L 124.800781 275.839844 L 131.199219 272 L 142.71875 264.960938 L 151.679688 259.199219 L 182.398438 240 L 193.921875 232.960938 L 208.640625 224 L 216.960938 218.878906 L 234.878906 208 L 251.519531 197.761719 L 277.121094 182.398438 L 293.121094 173.441406 Z M 295.679688 172.800781 "/>
<path style=" stroke:none;fill-rule:nonzero;fill:rgb(98.431373%,97.647059%,87.058824%);fill-opacity:1;" d="M 225.28125 367.359375 L 234.238281 367.359375 L 234.238281 371.839844 L 240.640625 368 L 242.558594 367.359375 L 248.320312 367.359375 L 254.078125 369.921875 L 257.921875 374.398438 L 259.839844 378.878906 L 260.480469 381.441406 L 260.480469 392.960938 L 257.921875 398.71875 L 254.078125 403.199219 L 248.960938 405.761719 L 241.28125 405.761719 L 236.160156 403.199219 L 234.238281 401.921875 L 234.238281 417.28125 L 233.601562 417.921875 L 225.921875 417.921875 L 225.28125 417.28125 Z M 225.28125 367.359375 "/>
<path style=" stroke:none;fill-rule:nonzero;fill:rgb(96.078432%,98.823529%,95.294118%);fill-opacity:1;" d="M 411.519531 112.640625 L 417.921875 112.640625 L 416.640625 115.839844 L 412.800781 118.398438 L 406.398438 120.960938 L 398.71875 124.800781 L 385.921875 125.441406 L 356.480469 128.640625 L 305.28125 133.761719 L 277.761719 136.320312 L 272.640625 136.320312 L 268.160156 131.839844 L 268.160156 129.921875 L 299.519531 125.441406 L 323.199219 122.238281 L 376.960938 116.480469 L 387.839844 115.199219 L 403.839844 113.921875 Z M 411.519531 112.640625 "/>
<path style=" stroke:none;fill-rule:nonzero;fill:rgb(98.431373%,98.823529%,89.411765%);fill-opacity:1;" d="M 98.558594 367.359375 L 107.519531 367.359375 L 109.441406 368.640625 L 117.121094 391.039062 L 118.398438 389.761719 L 121.601562 379.519531 L 124.800781 372.480469 L 126.71875 368 L 135.039062 368 L 138.878906 375.679688 L 144.640625 391.679688 L 146.558594 386.558594 L 151.039062 373.761719 L 153.601562 368.640625 L 155.519531 367.359375 L 163.199219 367.359375 L 163.839844 368.640625 L 155.519531 391.039062 L 150.398438 404.480469 L 149.121094 405.761719 L 141.441406 405.761719 L 138.238281 399.359375 L 131.839844 381.441406 L 130.558594 381.441406 L 123.519531 401.921875 L 121.601562 405.761719 L 114.558594 405.761719 L 112.640625 403.199219 L 104.960938 384.640625 L 98.558594 369.28125 Z M 98.558594 367.359375 "/>
<path style=" stroke:none;fill-rule:nonzero;fill:rgb(7.058824%,64.705884%,88.235295%);fill-opacity:1;" d="M 266.238281 138.878906 L 268.160156 140.800781 L 269.441406 142.71875 L 268.800781 145.28125 L 262.398438 149.761719 L 252.800781 155.519531 L 244.480469 160.640625 L 232.320312 168.320312 L 222.078125 174.71875 L 207.359375 183.679688 L 193.28125 192.640625 L 179.839844 200.960938 L 170.238281 206.71875 L 158.078125 214.398438 L 144.640625 222.71875 L 137.601562 227.199219 L 125.441406 234.878906 L 115.199219 240.640625 L 112 241.921875 L 108.160156 241.921875 L 108.160156 240 L 106.878906 240 L 107.519531 237.441406 L 117.761719 232.320312 L 129.921875 224.640625 L 146.558594 214.398438 L 162.558594 204.160156 L 173.441406 197.121094 L 188.160156 188.160156 L 193.921875 184.320312 L 195.199219 184.320312 L 195.199219 183.039062 L 202.878906 178.558594 L 209.28125 174.71875 L 220.800781 167.039062 L 229.761719 161.921875 L 232.320312 160 L 235.519531 158.078125 L 243.839844 152.960938 L 250.238281 148.480469 L 254.71875 145.921875 L 256.640625 145.921875 L 256.640625 144.640625 L 261.761719 142.71875 L 263.039062 142.71875 L 263.039062 141.441406 Z M 266.238281 138.878906 "/>
<path style=" stroke:none;fill-rule:nonzero;fill:rgb(10.588235%,77.64706%,97.254902%);fill-opacity:1;" d="M 415.359375 115.839844 L 416 117.121094 L 407.679688 128.640625 L 401.921875 136.960938 L 394.238281 147.839844 L 391.679688 151.039062 L 390.398438 151.039062 L 390.398438 149.121094 L 389.121094 148.480469 L 389.121094 139.519531 L 387.839844 139.519531 L 387.199219 138.238281 L 380.160156 142.71875 L 372.480469 146.558594 L 369.921875 147.199219 L 366.71875 149.761719 L 364.800781 149.761719 L 363.519531 152.320312 L 362.238281 152.320312 L 360.960938 154.878906 L 355.839844 159.359375 L 349.441406 166.398438 L 344.960938 171.519531 L 339.199219 177.921875 L 333.441406 184.960938 L 328.960938 190.078125 L 325.761719 193.921875 L 323.839844 194.558594 L 324.480469 195.839844 L 321.921875 194.558594 L 316.800781 188.800781 L 316.160156 187.519531 L 316.160156 183.679688 L 321.921875 176.640625 L 325.761719 172.160156 L 327.679688 167.039062 L 326.398438 166.398438 L 334.71875 163.199219 L 347.519531 156.160156 L 353.921875 152.320312 L 368.640625 144 L 377.601562 137.601562 L 387.199219 131.839844 L 394.238281 127.359375 L 395.519531 127.359375 L 395.519531 126.078125 L 398.71875 125.441406 L 399.359375 123.519531 L 405.121094 120.960938 L 410.238281 118.398438 L 414.71875 116.480469 Z M 415.359375 115.839844 "/>
<path style=" stroke:none;fill-rule:nonzero;fill:rgb(98.431373%,97.254902%,85.882354%);fill-opacity:1;" d="M 387.839844 350.71875 L 396.160156 351.359375 L 396.800781 352 L 396.800781 370.558594 L 403.199219 367.359375 L 409.601562 366.71875 L 415.359375 368.640625 L 419.839844 372.480469 L 421.761719 376.320312 L 422.398438 380.160156 L 422.398438 405.761719 L 419.839844 406.398438 L 412.800781 405.761719 L 412.160156 382.71875 L 410.878906 378.878906 L 408.320312 376.960938 L 402.558594 376.960938 L 398.71875 379.519531 L 397.441406 381.441406 L 396.800781 405.121094 L 396.160156 405.761719 L 387.839844 405.761719 L 387.199219 405.121094 L 387.199219 351.359375 Z M 387.839844 350.71875 "/>
<path style=" stroke:none;fill-rule:nonzero;fill:rgb(99.215686%,98.823529%,88.627452%);fill-opacity:1;" d="M 324.480469 366.71875 L 330.878906 366.71875 L 337.28125 368.640625 L 341.121094 373.121094 L 343.039062 378.878906 L 343.039062 405.761719 L 335.359375 405.761719 L 334.71875 402.558594 L 330.238281 405.761719 L 328.320312 406.398438 L 318.71875 406.398438 L 314.878906 404.480469 L 311.679688 399.359375 L 311.039062 397.441406 L 311.039062 391.679688 L 312.960938 387.839844 L 316.160156 385.28125 L 321.921875 383.359375 L 330.878906 382.71875 L 334.71875 383.359375 L 332.160156 376.960938 L 331.519531 376.320312 L 321.921875 376.320312 L 318.71875 377.601562 L 315.519531 377.601562 L 313.601562 373.761719 L 312.320312 371.839844 L 315.519531 369.921875 L 321.921875 367.359375 Z M 324.480469 366.71875 "/>
<path style=" stroke:none;fill-rule:nonzero;fill:rgb(28.627452%,88.627452%,98.039216%);fill-opacity:1;" d="M 149.121094 143.359375 L 152.320312 144 L 152.960938 147.199219 L 157.441406 147.839844 L 158.71875 147.839844 L 160 147.199219 L 160.640625 149.761719 L 161.28125 151.679688 L 159.359375 156.800781 L 158.078125 161.28125 L 158.078125 163.839844 L 161.28125 163.839844 L 154.878906 183.679688 L 153.601562 190.078125 L 150.398438 192 L 144 195.199219 L 134.398438 202.878906 L 133.121094 202.878906 L 133.761719 192 L 136.320312 176 L 140.800781 160.640625 L 147.839844 145.28125 Z M 149.121094 143.359375 "/>
<path style=" stroke:none;fill-rule:nonzero;fill:rgb(7.450981%,65.882355%,89.019608%);fill-opacity:1;" d="M 369.921875 254.078125 L 373.761719 256 L 372.480469 259.839844 L 365.441406 272 L 360.320312 279.039062 L 354.558594 286.078125 L 348.160156 293.121094 L 343.039062 297.601562 L 333.441406 305.28125 L 330.238281 307.199219 L 325.121094 307.839844 L 325.761719 305.28125 L 322.558594 304.640625 L 322.558594 302.71875 L 320 302.078125 L 319.359375 300.800781 L 316.160156 301.441406 L 313.601562 302.078125 L 315.519531 300.160156 L 321.921875 296.320312 L 324.480469 293.761719 L 330.878906 289.921875 L 332.160156 287.359375 L 336 284.800781 L 344.320312 276.480469 L 349.441406 269.441406 L 355.839844 259.839844 L 357.761719 258.558594 L 362.878906 259.199219 L 368.640625 255.359375 Z M 369.921875 254.078125 "/>
<path style=" stroke:none;fill-rule:nonzero;fill:rgb(98.823529%,98.823529%,94.509804%);fill-opacity:1;" d="M 280.320312 350.71875 L 287.359375 350.71875 L 288.640625 351.359375 L 288.640625 360.320312 L 279.679688 360.320312 L 279.679688 368 L 288 368.640625 L 288 375.679688 L 287.359375 376.320312 L 279.039062 376.320312 L 279.039062 403.839844 L 278.398438 405.761719 L 269.441406 405.761719 L 268.800781 405.121094 L 268.800781 394.238281 L 269.441406 377.601562 L 264.320312 377.601562 L 263.039062 376.320312 L 263.039062 369.921875 L 264.320312 368.640625 L 269.441406 368.640625 L 269.441406 359.679688 L 272.640625 354.558594 L 275.839844 352 Z M 280.320312 350.71875 "/>
<path style=" stroke:none;fill-rule:nonzero;fill:rgb(64.705884%,96.078432%,96.470588%);fill-opacity:1;" d="M 336 282.878906 L 337.28125 282.878906 L 336 285.441406 L 333.441406 287.359375 L 332.160156 287.359375 L 331.519531 289.921875 L 325.761719 293.761719 L 322.558594 295.039062 L 321.921875 296.960938 L 315.519531 300.800781 L 305.921875 305.921875 L 294.398438 310.398438 L 281.601562 313.601562 L 268.160156 314.878906 L 259.199219 314.878906 L 243.839844 312.960938 L 231.039062 309.761719 L 229.121094 308.480469 L 225.28125 307.199219 L 227.199219 304 L 227.839844 303.359375 L 233.601562 304 L 247.039062 306.558594 L 252.800781 307.199219 L 274.558594 307.199219 L 285.441406 305.28125 L 298.238281 301.441406 L 309.761719 296.320312 L 315.519531 294.398438 L 323.839844 288.640625 L 330.238281 284.160156 Z M 336 282.878906 "/>
<path style=" stroke:none;fill-rule:nonzero;fill:rgb(3.137255%,4.705882%,12.156863%);fill-opacity:1;" d="M 298.878906 182.398438 L 300.800781 184.320312 L 298.238281 186.878906 L 286.078125 193.921875 L 277.761719 199.039062 L 259.839844 209.921875 L 243.839844 219.519531 L 232.320312 226.558594 L 199.679688 246.398438 L 172.800781 263.039062 L 156.160156 273.28125 L 140.800781 282.878906 L 131.839844 288.640625 L 128 291.199219 L 126.078125 290.558594 L 127.359375 290.558594 L 126.71875 287.359375 L 133.121094 282.878906 L 138.878906 279.039062 L 141.441406 278.398438 L 142.078125 277.121094 L 143.359375 277.121094 L 144 275.839844 L 149.761719 272.640625 L 152.960938 270.71875 L 154.238281 270.71875 L 154.238281 269.441406 L 161.921875 264.960938 L 170.238281 259.839844 L 180.480469 253.441406 L 182.398438 253.441406 L 183.039062 251.519531 L 186.878906 249.601562 L 191.359375 246.398438 L 195.199219 244.480469 L 200.960938 240.640625 L 208 236.800781 L 213.761719 232.960938 L 215.679688 232.960938 L 216.320312 231.039062 L 220.800781 229.761719 L 220.800781 228.480469 L 224.640625 226.558594 L 232.320312 222.078125 L 233.601562 222.078125 L 233.601562 220.800781 L 241.28125 216.320312 L 250.238281 211.199219 L 256 207.359375 L 261.761719 204.160156 L 268.800781 199.679688 L 275.839844 195.839844 L 279.039062 193.921875 L 280.320312 193.921875 L 280.320312 192.640625 L 284.800781 190.71875 L 295.039062 185.601562 L 296.320312 185.601562 L 297.601562 183.039062 Z M 298.878906 182.398438 "/>
<path style=" stroke:none;fill-rule:nonzero;fill:rgb(98.823529%,98.431373%,93.725491%);fill-opacity:1;" d="M 363.519531 366.71875 L 368 366.71875 L 374.398438 368.640625 L 378.878906 371.199219 L 378.238281 373.761719 L 375.679688 376.960938 L 371.199219 376.320312 L 368.640625 375.679688 L 364.160156 375.679688 L 360.960938 376.960938 L 362.238281 379.519531 L 376.320312 386.558594 L 379.519531 390.398438 L 380.160156 391.679688 L 380.160156 396.160156 L 378.238281 401.28125 L 374.398438 405.121094 L 370.558594 406.398438 L 360.960938 406.398438 L 355.199219 404.480469 L 350.078125 401.28125 L 350.078125 398.71875 L 352.640625 396.160156 L 353.28125 394.238281 L 356.480469 394.878906 L 361.601562 397.441406 L 368 398.078125 L 370.558594 395.519531 L 369.28125 392.960938 L 362.878906 390.398438 L 355.199219 386.558594 L 352.640625 383.359375 L 352 382.078125 L 352 375.039062 L 354.558594 371.199219 L 360.320312 367.359375 Z M 363.519531 366.71875 "/>
<path style=" stroke:none;fill-rule:nonzero;fill:rgb(98.823529%,98.823529%,94.117647%);fill-opacity:1;" d="M 202.878906 366.71875 L 209.28125 367.359375 L 216.960938 370.558594 L 217.601562 372.480469 L 214.398438 376.960938 L 208.640625 376.320312 L 203.519531 375.679688 L 199.679688 376.960938 L 200.320312 379.519531 L 214.398438 386.558594 L 217.601562 390.398438 L 218.238281 391.679688 L 218.238281 397.441406 L 215.039062 402.558594 L 211.199219 405.761719 L 209.28125 406.398438 L 199.039062 406.398438 L 192.640625 403.839844 L 188.800781 401.28125 L 189.441406 398.71875 L 191.359375 398.078125 L 192 394.878906 L 193.28125 394.238281 L 200.320312 397.441406 L 202.238281 398.078125 L 207.359375 398.078125 L 208.640625 396.800781 L 208.640625 393.601562 L 204.800781 391.039062 L 197.121094 388.480469 L 192 384.640625 L 190.078125 380.160156 L 190.71875 374.398438 L 193.28125 370.558594 L 197.761719 368 Z M 202.878906 366.71875 "/>
<path style=" stroke:none;fill-rule:nonzero;fill:rgb(65.490198%,96.470588%,96.470588%);fill-opacity:1;" d="M 259.839844 134.398438 L 263.039062 134.398438 L 266.238281 138.238281 L 264.960938 140.800781 L 263.039062 141.441406 L 263.039062 142.71875 L 256.640625 144.640625 L 256.640625 145.921875 L 248.960938 149.761719 L 241.921875 154.878906 L 232.320312 160.640625 L 225.921875 165.121094 L 219.519531 168.320312 L 211.199219 174.078125 L 204.800781 177.921875 L 196.480469 183.039062 L 195.199219 183.039062 L 195.199219 184.320312 L 183.679688 191.359375 L 163.199219 204.160156 L 161.28125 203.519531 L 168.320312 199.039062 L 170.878906 197.761719 L 172.160156 195.199219 L 176 192 L 180.480469 189.441406 L 201.601562 174.078125 L 209.921875 168.960938 L 211.839844 167.039062 L 217.601562 163.839844 L 227.199219 156.800781 L 228.480469 156.800781 L 229.761719 154.238281 L 234.238281 151.679688 L 236.160156 151.679688 L 236.800781 149.761719 L 251.519531 140.800781 L 252.800781 138.238281 Z M 259.839844 134.398438 "/>
<path style=" stroke:none;fill-rule:nonzero;fill:rgb(3.137255%,5.098039%,12.54902%);fill-opacity:1;" d="M 309.121094 225.921875 L 312.320312 225.921875 L 312.320312 227.839844 L 293.761719 238.71875 L 274.558594 250.238281 L 260.480469 258.558594 L 209.28125 289.28125 L 195.839844 297.601562 L 177.921875 308.480469 L 167.679688 314.878906 L 167.039062 312.960938 L 169.601562 309.761719 L 174.078125 308.480469 L 176 305.28125 L 184.320312 300.160156 L 187.519531 299.519531 L 188.160156 297.601562 L 199.039062 291.199219 L 200.320312 291.199219 L 200.320312 289.921875 L 215.679688 280.960938 L 221.441406 277.761719 L 225.28125 275.839844 L 227.199219 273.921875 L 233.601562 270.71875 L 235.519531 268.800781 L 241.28125 265.601562 L 244.480469 263.679688 L 248.320312 261.121094 L 254.078125 257.921875 L 261.761719 253.441406 L 264.960938 251.519531 L 273.28125 246.398438 L 277.121094 244.480469 L 286.078125 238.71875 L 289.921875 236.800781 L 293.121094 234.878906 L 294.398438 234.878906 L 294.398438 233.601562 L 298.878906 231.039062 L 302.71875 229.761719 L 303.359375 228.480469 L 307.199219 228.480469 Z M 309.121094 225.921875 "/>
<path style=" stroke:none;fill-rule:nonzero;fill:rgb(98.039216%,97.647059%,85.882354%);fill-opacity:1;" d="M 295.039062 350.71875 L 304 350.71875 L 304 405.761719 L 301.441406 406.398438 L 294.398438 405.761719 L 294.398438 351.359375 Z M 295.039062 350.71875 "/>
<path style=" stroke:none;fill-rule:nonzero;fill:rgb(5.098039%,56.078434%,80.392158%);fill-opacity:1;" d="M 362.878906 179.199219 L 364.800781 179.839844 L 362.878906 185.601562 L 359.679688 192 L 359.039062 193.921875 L 357.761719 193.921875 L 358.398438 196.480469 L 344.960938 214.398438 L 341.761719 218.238281 L 339.839844 218.238281 L 339.839844 216.960938 L 337.28125 215.679688 L 331.519531 206.71875 L 333.441406 203.519531 L 334.71875 203.519531 L 336 199.679688 L 338.558594 196.480469 L 341.121094 193.921875 L 342.398438 193.921875 L 342.398438 192.640625 L 346.878906 188.800781 L 348.160156 188.800781 L 348.160156 187.519531 L 349.441406 187.519531 L 349.441406 186.238281 L 350.71875 186.238281 L 350.71875 184.960938 L 359.679688 180.480469 Z M 362.878906 179.199219 "/>
<path style=" stroke:none;fill-rule:nonzero;fill:rgb(6.666667%,11.372549%,21.176471%);fill-opacity:1;" d="M 338.558594 237.441406 L 340.480469 237.441406 L 340.480469 239.359375 L 341.761719 239.359375 L 341.121094 241.28125 L 336.640625 240 L 336.640625 241.921875 L 334.078125 242.558594 L 334.078125 244.480469 L 332.800781 244.480469 L 331.519531 247.679688 L 325.761719 252.800781 L 314.878906 260.480469 L 304.640625 266.878906 L 292.480469 274.558594 L 281.601562 280.320312 L 273.921875 283.519531 L 267.519531 282.878906 L 267.519531 280.960938 L 271.359375 277.761719 L 279.039062 273.921875 L 288 268.800781 L 291.839844 266.878906 L 293.121094 264.320312 L 296.960938 262.398438 L 298.238281 262.398438 L 298.238281 261.121094 L 300.160156 261.121094 L 300.160156 259.839844 L 304 257.921875 L 305.921875 256 L 307.839844 256 L 307.839844 254.71875 L 316.800781 249.601562 L 319.359375 247.679688 L 321.28125 247.679688 L 321.921875 245.761719 L 324.480469 244.480469 L 327.039062 244.480469 L 327.679688 243.199219 L 330.238281 242.558594 L 333.441406 239.359375 L 337.28125 238.078125 Z M 338.558594 237.441406 "/>
<path style=" stroke:none;fill-rule:nonzero;fill:rgb(90.980393%,50.588238%,16.078432%);fill-opacity:1;" d="M 336 243.839844 L 338.558594 244.480469 L 339.839844 247.039062 L 335.359375 252.160156 L 328.960938 257.28125 L 317.441406 266.238281 L 296.960938 279.039062 L 283.519531 286.078125 L 271.359375 291.199219 L 269.441406 291.839844 L 263.679688 291.839844 L 262.398438 290.558594 L 263.039062 288 L 270.71875 284.160156 L 285.441406 277.761719 L 295.679688 272 L 307.839844 264.320312 L 321.28125 255.359375 L 330.238281 248.320312 Z M 336 243.839844 "/>
<path style=" stroke:none;fill-rule:nonzero;fill:rgb(32.941177%,95.294118%,99.607843%);fill-opacity:1;" d="M 380.800781 192 L 382.71875 192 L 384 199.679688 L 383.359375 213.121094 L 380.800781 229.761719 L 377.601562 238.078125 L 375.679688 238.078125 L 376.320312 232.960938 L 376.960938 230.398438 L 375.679688 230.398438 L 374.398438 224 L 373.121094 222.078125 L 369.28125 227.839844 L 366.71875 232.960938 L 363.519531 231.679688 L 362.878906 231.039062 L 362.878906 225.921875 L 365.441406 215.039062 L 366.71875 215.039062 L 367.359375 211.839844 L 372.480469 202.878906 L 374.398438 199.679688 L 375.679688 199.679688 L 376.320312 196.480469 L 378.878906 192.640625 Z M 380.800781 192 "/>
<path style=" stroke:none;fill-rule:nonzero;fill:rgb(98.823529%,98.823529%,94.117647%);fill-opacity:1;" d="M 242.558594 367.359375 L 248.320312 367.359375 L 254.078125 369.921875 L 257.921875 374.398438 L 259.839844 378.878906 L 260.480469 381.441406 L 260.480469 392.960938 L 257.921875 398.71875 L 254.078125 403.199219 L 250.878906 405.121094 L 247.039062 405.121094 L 244.480469 400.640625 L 240.640625 398.078125 L 240.640625 397.441406 L 245.121094 396.160156 L 248.960938 393.601562 L 250.878906 388.480469 L 250.878906 384 L 248.960938 378.878906 L 245.761719 376.960938 L 240.640625 376.960938 L 237.441406 377.601562 L 235.519531 374.398438 L 234.238281 373.761719 L 235.519531 371.199219 L 240.640625 368 Z M 242.558594 367.359375 "/>
<path style=" stroke:none;fill-rule:nonzero;fill:rgb(98.431373%,98.039216%,92.54902%);fill-opacity:1;" d="M 98.558594 367.359375 L 107.519531 367.359375 L 109.441406 368.640625 L 117.121094 391.039062 L 118.398438 389.761719 L 119.679688 385.921875 L 122.878906 386.558594 L 126.078125 389.121094 L 126.71875 392.960938 L 122.878906 403.199219 L 121.601562 405.761719 L 114.558594 405.761719 L 112.640625 403.199219 L 104.960938 384.640625 L 98.558594 369.28125 Z M 98.558594 367.359375 "/>
<path style=" stroke:none;fill-rule:nonzero;fill:rgb(7.058824%,64.313728%,87.843138%);fill-opacity:1;" d="M 307.839844 190.71875 L 309.121094 190.71875 L 309.761719 194.558594 L 302.078125 200.960938 L 292.480469 206.71875 L 280.960938 213.761719 L 263.039062 224.640625 L 250.238281 232.320312 L 246.398438 234.878906 L 241.921875 234.238281 L 242.558594 232.320312 L 246.398438 231.039062 L 246.398438 229.761719 L 247.679688 229.761719 L 248.320312 228.480469 L 251.519531 226.558594 L 254.078125 227.199219 L 255.359375 224 L 257.921875 222.078125 L 259.199219 222.078125 L 259.199219 220.800781 L 255.359375 221.441406 L 258.558594 218.878906 L 266.238281 214.398438 L 279.039062 206.71875 L 288.640625 200.320312 L 293.121094 198.398438 L 304 192 Z M 307.839844 190.71875 "/>
<path style=" stroke:none;fill-rule:nonzero;fill:rgb(3.921569%,48.627451%,75.294119%);fill-opacity:1;" d="M 230.398438 236.160156 L 234.238281 236.160156 L 229.761719 240.640625 L 227.199219 240.640625 L 227.199219 241.921875 L 221.441406 245.121094 L 217.601562 247.679688 L 214.398438 248.320312 L 214.398438 249.601562 L 210.558594 252.160156 L 206.71875 254.078125 L 205.441406 254.078125 L 205.441406 255.359375 L 200.960938 257.28125 L 192 263.039062 L 186.878906 266.238281 L 178.558594 271.359375 L 165.761719 279.039062 L 156.800781 284.800781 L 143.359375 293.121094 L 138.238281 296.320312 L 133.761719 298.238281 L 122.878906 304.640625 L 119.679688 307.839844 L 118.398438 311.039062 L 115.839844 313.601562 L 103.039062 321.921875 L 90.878906 329.601562 L 88.960938 330.238281 L 88.960938 328.320312 L 93.441406 323.839844 L 98.558594 319.359375 L 101.761719 317.441406 L 106.238281 314.238281 L 106.878906 312.320312 L 113.921875 308.480469 L 133.121094 296.320312 L 136.960938 294.398438 L 140.160156 291.839844 L 152.320312 284.160156 L 167.679688 274.558594 L 184.320312 264.320312 L 193.921875 258.558594 L 223.359375 240.640625 Z M 230.398438 236.160156 "/>
<path style=" stroke:none;fill-rule:nonzero;fill:rgb(10.196079%,76.078433%,96.470588%);fill-opacity:1;" d="M 137.601562 170.878906 L 138.238281 172.800781 L 139.519531 173.441406 L 139.519531 177.921875 L 143.359375 178.558594 L 144 177.28125 L 151.679688 174.71875 L 152.960938 174.71875 L 153.601562 172.800781 L 156.800781 173.441406 L 157.441406 175.359375 L 154.238281 186.878906 L 152.960938 190.71875 L 144 195.199219 L 134.398438 202.878906 L 133.121094 202.878906 L 133.761719 192 L 136.320312 176 Z M 137.601562 170.878906 "/>
<path style=" stroke:none;fill-rule:nonzero;fill:rgb(98.431373%,98.039216%,87.450981%);fill-opacity:1;" d="M 171.519531 368 L 181.121094 368 L 181.121094 405.761719 L 171.519531 405.761719 L 170.878906 390.398438 L 170.878906 372.480469 Z M 171.519531 368 "/>
<path style=" stroke:none;fill-rule:nonzero;fill:rgb(10.588235%,77.254903%,96.862745%);fill-opacity:1;" d="M 369.921875 254.078125 L 373.761719 256 L 372.480469 259.839844 L 365.441406 272 L 360.320312 279.039062 L 354.558594 286.078125 L 352 287.359375 L 352.640625 282.878906 L 352.640625 279.679688 L 350.078125 277.121094 L 348.800781 273.28125 L 346.878906 273.921875 L 348.160156 271.359375 L 354.558594 261.761719 L 357.761719 258.558594 L 362.878906 259.199219 L 368.640625 255.359375 Z M 369.921875 254.078125 "/>
<path style=" stroke:none;fill-rule:nonzero;fill:rgb(98.823529%,98.823529%,94.509804%);fill-opacity:1;" d="M 126.71875 368 L 135.039062 368 L 138.878906 375.679688 L 144.640625 391.679688 L 143.359375 392.960938 L 137.601562 392.320312 L 137.601562 394.238281 L 136.320312 394.238281 L 131.839844 381.441406 L 130.558594 381.441406 L 127.359375 391.039062 L 125.441406 391.039062 L 126.078125 389.121094 L 119.679688 385.921875 L 121.601562 379.519531 L 124.800781 372.480469 Z M 126.71875 368 "/>
<path style=" stroke:none;fill-rule:nonzero;fill:rgb(7.450981%,12.156863%,21.568628%);fill-opacity:1;" d="M 336.640625 250.238281 L 337.921875 250.238281 L 338.558594 254.078125 L 336 257.28125 L 334.078125 257.28125 L 333.441406 259.199219 L 331.519531 259.199219 L 331.519531 260.480469 L 329.601562 260.480469 L 328.320312 263.039062 L 327.039062 263.039062 L 325.761719 265.601562 L 324.480469 265.601562 L 324.480469 266.878906 L 318.078125 271.359375 L 316.800781 271.359375 L 316.800781 272.640625 L 311.039062 276.480469 L 309.121094 276.480469 L 309.121094 277.761719 L 303.359375 281.601562 L 295.039062 285.441406 L 293.121094 285.441406 L 292.480469 286.71875 L 284.160156 289.921875 L 280.320312 291.199219 L 275.839844 292.480469 L 275.839844 291.199219 L 273.28125 291.199219 L 273.28125 289.921875 L 289.921875 282.238281 L 301.441406 275.839844 L 316.160156 266.238281 L 328.320312 257.28125 L 334.078125 252.160156 Z M 336.640625 250.238281 "/>
<path style=" stroke:none;fill-rule:nonzero;fill:rgb(32.156864%,94.509804%,99.215686%);fill-opacity:1;" d="M 357.761719 245.121094 L 359.679688 245.121094 L 359.039062 251.519531 L 356.480469 258.558594 L 353.28125 264.960938 L 348.160156 272 L 343.039062 278.398438 L 337.921875 283.519531 L 330.238281 284.800781 L 321.28125 291.199219 L 314.238281 295.679688 L 311.679688 295.039062 L 318.71875 290.558594 L 324.480469 286.078125 L 330.878906 280.320312 L 339.839844 271.359375 L 346.238281 263.039062 L 353.28125 251.519531 L 356.480469 245.761719 Z M 357.761719 245.121094 "/>
<path style=" stroke:none;fill-rule:nonzero;fill:rgb(65.882355%,95.294118%,96.078432%);fill-opacity:1;" d="M 247.039062 80.640625 L 269.441406 80.640625 L 282.878906 82.558594 L 293.761719 85.121094 L 305.28125 88.960938 L 316.160156 94.078125 L 327.039062 100.480469 L 330.238281 103.679688 L 327.039062 102.398438 L 320 98.558594 L 307.199219 94.078125 L 291.199219 88.320312 L 282.238281 86.398438 L 264.960938 84.480469 L 231.039062 84.480469 L 231.039062 83.199219 L 235.519531 81.921875 Z M 247.039062 80.640625 "/>
<path style=" stroke:none;fill-rule:nonzero;fill:rgb(20%,22.352941%,27.843139%);fill-opacity:1;" d="M 240.640625 376.320312 L 245.761719 376.320312 L 249.601562 378.878906 L 251.519531 384 L 251.519531 388.480469 L 249.601562 393.601562 L 246.398438 396.160156 L 245.121094 396.800781 L 240.640625 396.800781 L 236.800781 394.238281 L 234.878906 391.679688 L 234.238281 389.121094 L 234.238281 384 L 235.519531 379.519531 L 238.71875 376.960938 Z M 240.640625 376.320312 "/>
<path style=" stroke:none;fill-rule:nonzero;fill:rgb(97.647059%,92.156863%,57.647061%);fill-opacity:1;" d="M 241.921875 119.679688 L 245.761719 119.679688 L 247.039062 120.960938 L 247.039062 124.160156 L 244.480469 126.078125 L 230.398438 131.839844 L 218.238281 138.238281 L 216.320312 139.519531 L 213.761719 139.519531 L 211.839844 136.320312 L 211.839844 133.761719 L 225.28125 126.078125 L 239.359375 120.320312 Z M 241.921875 119.679688 "/>
<path style=" stroke:none;fill-rule:nonzero;fill:rgb(6.666667%,11.372549%,21.176471%);fill-opacity:1;" d="M 126.078125 306.558594 L 127.359375 307.199219 L 127.359375 308.480469 L 132.480469 310.398438 L 131.839844 313.601562 L 130.558594 313.601562 L 130.558594 314.878906 L 128.640625 314.878906 L 128.640625 316.160156 L 122.238281 318.71875 L 119.679688 321.921875 L 113.921875 324.480469 L 112 326.398438 L 107.519531 328.960938 L 106.878906 330.238281 L 104.320312 330.878906 L 103.679688 327.039062 L 104.960938 323.839844 L 106.238281 323.839844 L 106.878906 318.71875 L 119.679688 310.398438 Z M 126.078125 306.558594 "/>
<path style=" stroke:none;fill-rule:nonzero;fill:rgb(98.431373%,97.254902%,86.666667%);fill-opacity:1;" d="M 269.441406 377.601562 L 270.078125 377.601562 L 270.078125 380.800781 L 272.640625 381.441406 L 277.121094 382.078125 L 279.039062 379.519531 L 279.039062 403.839844 L 278.398438 405.761719 L 269.441406 405.761719 L 268.800781 405.121094 L 268.800781 394.238281 Z M 269.441406 377.601562 "/>
<path style=" stroke:none;fill-rule:nonzero;fill:rgb(65.098041%,96.078432%,96.470588%);fill-opacity:1;" d="M 302.71875 183.679688 L 305.28125 184.320312 L 307.839844 187.519531 L 308.480469 190.71875 L 304 192.640625 L 291.199219 200.320312 L 288 201.601562 L 284.160156 204.160156 L 268.160156 213.761719 L 266.238281 215.039062 L 264.320312 214.398438 L 266.878906 212.480469 L 268.160156 212.480469 L 268.800781 209.921875 L 272.640625 206.71875 L 277.121094 204.160156 L 280.960938 200.960938 L 288 195.839844 L 289.921875 195.199219 L 289.921875 193.921875 L 291.199219 193.921875 L 292.480469 191.359375 L 296.960938 186.878906 Z M 302.71875 183.679688 "/>
<path style=" stroke:none;fill-rule:nonzero;fill:rgb(98.823529%,98.431373%,93.333334%);fill-opacity:1;" d="M 327.039062 382.71875 L 330.878906 382.71875 L 330.878906 384 L 335.359375 384 L 336.640625 385.28125 L 336 387.839844 L 334.71875 389.761719 L 323.199219 391.039062 L 321.28125 392.320312 L 321.28125 396.800781 L 323.839844 398.71875 L 323.199219 400.640625 L 316.160156 400 L 311.679688 398.71875 L 311.039062 397.441406 L 311.039062 391.679688 L 312.960938 387.839844 L 316.160156 385.28125 L 321.921875 383.359375 Z M 327.039062 382.71875 "/>
<path style=" stroke:none;fill-rule:nonzero;fill:rgb(7.450981%,65.490198%,89.019608%);fill-opacity:1;" d="M 333.441406 163.839844 L 337.28125 164.480469 L 337.921875 167.679688 L 333.441406 176.640625 L 330.878906 179.199219 L 329.601562 179.199219 L 328.320312 181.761719 L 327.039062 181.761719 L 325.761719 184.320312 L 320.640625 190.078125 L 319.359375 190.078125 L 318.71875 191.359375 L 316.160156 187.519531 L 316.160156 183.679688 L 321.921875 176.640625 L 325.761719 172.160156 L 327.679688 167.039062 L 326.398438 166.398438 Z M 333.441406 163.839844 "/>
<path style=" stroke:none;fill-rule:nonzero;fill:rgb(64.705884%,95.686275%,96.470588%);fill-opacity:1;" d="M 227.839844 303.359375 L 233.601562 304 L 242.558594 305.921875 L 242.558594 307.199219 L 251.519531 307.839844 L 273.28125 308.480469 L 272 311.679688 L 269.441406 312.320312 L 261.121094 312.960938 L 259.199219 313.601562 L 243.839844 312.960938 L 231.039062 309.761719 L 229.121094 308.480469 L 225.28125 307.199219 L 227.199219 304 Z M 227.839844 303.359375 "/>
<path style=" stroke:none;fill-rule:nonzero;fill:rgb(99.215686%,98.823529%,89.019608%);fill-opacity:1;" d="M 119.679688 385.921875 L 122.878906 386.558594 L 126.078125 389.121094 L 126.71875 392.960938 L 122.878906 403.199219 L 121.601562 405.761719 L 114.558594 405.761719 L 112.640625 403.199219 L 107.519531 390.398438 L 107.519531 389.121094 L 111.359375 390.398438 L 115.199219 392.320312 L 117.761719 392.320312 Z M 119.679688 385.921875 "/>
<path style=" stroke:none;fill-rule:nonzero;fill:rgb(11.764706%,77.64706%,96.862745%);fill-opacity:1;" d="M 206.71875 426.878906 L 212.480469 427.519531 L 216.960938 431.359375 L 217.601562 432.640625 L 217.601562 437.121094 L 213.121094 442.238281 L 211.839844 442.878906 L 206.71875 442.878906 L 203.519531 440.960938 L 201.601562 439.039062 L 200.960938 437.121094 L 200.960938 432.640625 L 203.519531 428.800781 Z M 206.71875 426.878906 "/>
<path style=" stroke:none;fill-rule:nonzero;fill:rgb(98.823529%,98.431373%,93.725491%);fill-opacity:1;" d="M 155.519531 367.359375 L 163.199219 367.359375 L 163.839844 368.640625 L 155.519531 391.039062 L 154.238281 392.960938 L 150.398438 387.199219 L 149.761719 384 L 147.839844 384 L 149.761719 376.960938 L 153.601562 368.640625 Z M 155.519531 367.359375 "/>
<path style=" stroke:none;fill-rule:nonzero;fill:rgb(91.764706%,45.490196%,10.196079%);fill-opacity:1;" d="M 280.320312 156.800781 L 282.238281 159.359375 L 281.601562 163.199219 L 273.921875 168.320312 L 262.398438 175.359375 L 252.160156 181.761719 L 239.359375 189.441406 L 236.800781 190.078125 L 236.800781 188.160156 L 240.640625 186.878906 L 243.839844 183.039062 L 248.960938 179.839844 L 250.878906 179.839844 L 251.519531 178.558594 L 254.71875 176 L 256 176 L 257.28125 173.441406 L 260.480469 170.238281 L 264.320312 165.761719 L 266.238281 164.480469 L 272 163.839844 L 277.121094 162.558594 L 277.761719 159.359375 L 277.121094 158.078125 Z M 280.320312 156.800781 "/>
<path style=" stroke:none;fill-rule:nonzero;fill:rgb(98.431373%,98.431373%,89.019608%);fill-opacity:1;" d="M 211.839844 392.320312 L 214.398438 393.601562 L 215.679688 396.800781 L 215.039062 399.359375 L 210.558594 401.28125 L 209.28125 402.558594 L 208.640625 405.121094 L 211.199219 405.761719 L 209.28125 406.398438 L 199.039062 406.398438 L 192.640625 403.839844 L 188.800781 401.28125 L 189.441406 398.71875 L 191.359375 398.078125 L 192 394.878906 L 193.28125 394.238281 L 200.320312 397.441406 L 202.238281 398.078125 L 207.359375 398.078125 L 208.640625 396.800781 L 209.28125 394.238281 L 210.558594 394.238281 L 210.558594 392.960938 Z M 211.839844 392.320312 "/>
<path style=" stroke:none;fill-rule:nonzero;fill:rgb(10.980392%,76.078433%,96.078432%);fill-opacity:1;" d="M 158.078125 426.878906 L 163.199219 426.878906 L 168.320312 431.359375 L 168.960938 435.199219 L 167.039062 439.679688 L 163.199219 442.878906 L 158.078125 442.878906 L 154.238281 439.679688 L 152.320312 435.839844 L 152.960938 432 L 156.160156 428.160156 Z M 158.078125 426.878906 "/>
<path style=" stroke:none;fill-rule:nonzero;fill:rgb(7.058824%,11.764706%,21.176471%);fill-opacity:1;" d="M 165.121094 306.558594 L 165.761719 308.480469 L 167.679688 308.480469 L 167.039062 310.398438 L 165.761719 310.398438 L 165.121094 312.320312 L 163.199219 312.320312 L 163.199219 313.601562 L 165.121094 314.238281 L 165.761719 316.160156 L 158.71875 320.640625 L 156.800781 323.199219 L 147.839844 324.480469 L 144.640625 325.121094 L 143.359375 324.480469 L 142.71875 325.761719 L 138.878906 324.480469 L 139.519531 322.558594 L 151.679688 314.878906 L 161.921875 308.480469 Z M 165.121094 306.558594 "/>
<path style=" stroke:none;fill-rule:nonzero;fill:rgb(90.980393%,49.411765%,14.509805%);fill-opacity:1;" d="M 255.359375 426.878906 L 260.480469 426.878906 L 264.320312 430.078125 L 265.601562 432 L 264.960938 437.761719 L 261.761719 441.601562 L 260.480469 442.238281 L 254.71875 442.238281 L 250.878906 439.679688 L 249.601562 437.121094 L 249.601562 432 L 252.160156 428.800781 Z M 255.359375 426.878906 "/>
<path style=" stroke:none;fill-rule:nonzero;fill:rgb(91.764706%,45.09804%,10.196079%);fill-opacity:1;" d="M 318.078125 207.359375 L 318.71875 209.28125 L 316.160156 215.039062 L 310.398438 220.160156 L 299.519531 226.558594 L 273.28125 241.921875 L 270.71875 242.558594 L 273.28125 239.359375 L 278.398438 236.800781 L 284.800781 231.679688 L 286.078125 229.761719 L 289.921875 227.839844 L 294.398438 225.921875 L 295.039062 224.640625 L 296.960938 224.640625 L 298.238281 222.078125 L 301.441406 218.878906 L 305.28125 217.601562 L 305.921875 215.679688 L 307.839844 215.679688 L 307.839844 214.398438 L 310.398438 212.480469 L 313.601562 209.921875 L 317.441406 208 Z M 318.078125 207.359375 "/>
<path style=" stroke:none;fill-rule:nonzero;fill:rgb(11.372549%,76.862746%,96.078432%);fill-opacity:1;" d="M 266.238281 138.878906 L 268.160156 140.800781 L 269.441406 142.71875 L 268.800781 145.28125 L 262.398438 149.761719 L 252.800781 155.519531 L 244.480469 160.640625 L 242.558594 161.921875 L 240 161.28125 L 240 158.078125 L 248.960938 152.320312 L 249.601562 151.039062 L 245.761719 152.320312 L 248.960938 149.121094 L 254.71875 145.921875 L 256.640625 145.921875 L 256.640625 144.640625 L 261.761719 142.71875 L 263.039062 142.71875 L 263.039062 141.441406 Z M 266.238281 138.878906 "/>
<path style=" stroke:none;fill-rule:nonzero;fill:rgb(91.37255%,47.450981%,12.54902%);fill-opacity:1;" d="M 305.921875 426.878906 L 310.398438 427.519531 L 314.878906 432.640625 L 314.238281 437.761719 L 311.039062 441.601562 L 309.761719 442.238281 L 304 442.238281 L 300.800781 440.320312 L 298.878906 437.761719 L 298.878906 432.640625 L 300.800781 429.441406 Z M 305.921875 426.878906 "/>
<path style=" stroke:none;fill-rule:nonzero;fill:rgb(91.764706%,45.882353%,10.588235%);fill-opacity:1;" d="M 353.28125 426.878906 L 357.761719 427.519531 L 360.960938 430.078125 L 362.238281 432 L 362.238281 437.121094 L 359.679688 440.960938 L 355.199219 442.878906 L 350.71875 441.601562 L 347.519531 438.398438 L 346.238281 433.921875 L 348.800781 429.441406 L 351.359375 427.519531 Z M 353.28125 426.878906 "/>
<path style=" stroke:none;fill-rule:nonzero;fill:rgb(88.235295%,70.588237%,39.215687%);fill-opacity:1;" d="M 202.238281 140.160156 L 204.800781 140.800781 L 206.078125 145.28125 L 202.878906 148.480469 L 196.480469 153.601562 L 188.800781 161.28125 L 187.519531 161.28125 L 186.878906 163.199219 L 183.039062 163.839844 L 182.398438 163.199219 L 182.398438 159.359375 L 188.160156 152.320312 L 195.839844 145.28125 Z M 202.238281 140.160156 "/>
<path style=" stroke:none;fill-rule:nonzero;fill:rgb(6.666667%,61.56863%,85.882354%);fill-opacity:1;" d="M 380.160156 183.039062 L 381.441406 183.039062 L 383.359375 188.800781 L 384.640625 197.121094 L 385.28125 210.558594 L 384.640625 218.878906 L 384 218.878906 L 383.359375 199.679688 L 382.71875 192 L 378.878906 192.640625 L 377.601562 195.839844 L 375.679688 199.679688 L 374.398438 199.679688 L 373.761719 202.238281 L 369.921875 208.640625 L 367.359375 212.480469 L 366.078125 215.039062 L 366.71875 200.960938 L 368.640625 197.761719 L 373.761719 192 Z M 380.160156 183.039062 "/>
<path style=" stroke:none;fill-rule:nonzero;fill:rgb(5.098039%,55.686277%,80.000001%);fill-opacity:1;" d="M 323.839844 231.039062 L 325.761719 231.679688 L 327.679688 231.039062 L 327.039062 232.960938 L 316.800781 239.359375 L 278.398438 262.398438 L 273.921875 264.960938 L 272 264.320312 L 273.28125 261.761719 L 275.839844 261.121094 L 279.679688 258.558594 L 280.320312 257.28125 L 284.800781 254.71875 L 288.640625 252.800781 L 293.121094 249.601562 L 298.878906 246.398438 L 300.800781 246.398438 L 301.441406 244.480469 L 308.480469 240 L 318.078125 234.238281 L 321.921875 231.679688 Z M 323.839844 231.039062 "/>
<path style=" stroke:none;fill-rule:nonzero;fill:rgb(3.529412%,47.450981%,74.117649%);fill-opacity:1;" d="M 138.238281 293.121094 L 140.160156 293.761719 L 133.761719 298.238281 L 122.878906 304.640625 L 119.679688 307.839844 L 118.398438 311.039062 L 115.839844 313.601562 L 103.039062 321.921875 L 90.878906 329.601562 L 88.960938 330.238281 L 88.960938 328.320312 L 93.441406 323.839844 L 98.558594 319.359375 L 101.761719 317.441406 L 106.238281 314.238281 L 106.878906 312.320312 L 113.921875 308.480469 L 133.121094 296.320312 L 136.960938 294.398438 Z M 138.238281 293.121094 "/>
<path style=" stroke:none;fill-rule:nonzero;fill:rgb(88.235295%,69.803923%,38.431373%);fill-opacity:1;" d="M 285.441406 277.761719 L 286.71875 278.398438 L 284.800781 279.679688 L 286.71875 280.960938 L 286.71875 282.238281 L 289.28125 282.878906 L 279.039062 288 L 269.441406 291.839844 L 263.679688 291.839844 L 262.398438 290.558594 L 263.039062 288 L 270.71875 284.160156 Z M 285.441406 277.761719 "/>
<path style=" stroke:none;fill-rule:nonzero;fill:rgb(87.843138%,71.372551%,40.392157%);fill-opacity:1;" d="M 336 243.839844 L 338.558594 244.480469 L 339.839844 247.039062 L 335.359375 252.160156 L 328.960938 257.28125 L 317.441406 266.238281 L 307.199219 272.640625 L 304.640625 273.28125 L 307.199219 270.71875 L 317.441406 264.320312 L 319.359375 263.679688 L 318.71875 260.480469 L 320.640625 260.480469 L 320 258.558594 L 322.558594 256 L 324.480469 252.800781 L 330.878906 247.679688 Z M 336 243.839844 "/>
<path style=" stroke:none;fill-rule:nonzero;fill:rgb(3.529412%,49.019608%,75.686276%);fill-opacity:1;" d="M 331.519531 209.921875 L 332.800781 210.558594 L 334.71875 216.960938 L 334.078125 218.878906 L 338.558594 218.878906 L 338.558594 216.960938 L 339.839844 216.960938 L 339.839844 218.238281 L 341.121094 218.878906 L 332.160156 228.480469 L 328.320312 231.679688 L 325.121094 232.320312 L 323.839844 231.679688 L 320.640625 232.320312 L 322.558594 229.121094 L 327.039062 225.921875 L 328.960938 222.078125 L 328.960938 217.601562 L 327.679688 216.320312 L 330.878906 210.558594 Z M 331.519531 209.921875 "/>
<path style=" stroke:none;fill-rule:nonzero;fill:rgb(29.411766%,90.196079%,97.254902%);fill-opacity:1;" d="M 292.480469 303.359375 L 293.761719 304 L 291.839844 305.921875 L 281.601562 308.480469 L 278.398438 309.121094 L 279.679688 311.679688 L 284.800781 312.320312 L 284.800781 312.960938 L 277.121094 314.238281 L 268.160156 314.878906 L 259.199219 314.878906 L 248.320312 313.601562 L 248.320312 312.960938 L 259.199219 312.960938 L 261.121094 312.320312 L 269.441406 311.679688 L 272 311.039062 L 272.640625 309.761719 L 270.078125 309.121094 L 251.519531 308.480469 L 242.558594 307.199219 L 242.558594 306.558594 L 252.800781 307.199219 L 274.558594 307.199219 L 285.441406 305.28125 Z M 292.480469 303.359375 "/>
<path style=" stroke:none;fill-rule:nonzero;fill:rgb(4.705882%,53.725493%,79.215688%);fill-opacity:1;" d="M 160.640625 205.441406 L 163.199219 206.078125 L 154.878906 211.199219 L 147.839844 215.679688 L 146.558594 215.679688 L 146.558594 216.960938 L 139.519531 221.441406 L 122.878906 231.679688 L 119.039062 234.238281 L 116.480469 236.800781 L 114.558594 238.078125 L 113.921875 241.28125 L 108.160156 241.921875 L 108.160156 240 L 106.878906 240 L 107.519531 237.441406 L 117.761719 232.320312 L 129.921875 224.640625 L 146.558594 214.398438 Z M 160.640625 205.441406 "/>
<path style=" stroke:none;fill-rule:nonzero;fill:rgb(7.058824%,11.764706%,21.176471%);fill-opacity:1;" d="M 134.398438 277.121094 L 135.039062 278.398438 L 140.160156 277.761719 L 140.160156 279.039062 L 133.121094 283.519531 L 127.359375 288 L 126.71875 291.839844 L 124.160156 293.761719 L 118.398438 293.121094 L 117.761719 291.199219 L 118.398438 289.28125 L 115.839844 289.28125 L 115.839844 288 L 117.761719 288 L 117.761719 286.71875 L 124.800781 282.878906 Z M 134.398438 277.121094 "/>
<path style=" stroke:none;fill-rule:nonzero;fill:rgb(98.823529%,98.039216%,92.54902%);fill-opacity:1;" d="M 324.480469 366.71875 L 330.878906 366.71875 L 331.519531 369.921875 L 330.878906 371.199219 L 327.039062 371.839844 L 327.679688 374.398438 L 330.238281 375.039062 L 320 376.960938 L 315.519531 377.601562 L 313.601562 373.761719 L 312.320312 371.839844 L 315.519531 369.921875 L 321.921875 367.359375 Z M 324.480469 366.71875 "/>
<path style=" stroke:none;fill-rule:nonzero;fill:rgb(7.058824%,11.764706%,21.176471%);fill-opacity:1;" d="M 283.519531 161.28125 L 284.800781 161.921875 L 284.800781 163.199219 L 287.359375 163.839844 L 289.28125 165.761719 L 288 168.960938 L 279.039062 174.078125 L 275.839844 172.800781 L 270.71875 173.441406 L 273.28125 170.238281 L 272 168.960938 L 282.878906 161.921875 Z M 283.519531 161.28125 "/>
<path style=" stroke:none;fill-rule:nonzero;fill:rgb(98.431373%,98.823529%,90.588236%);fill-opacity:1;" d="M 353.28125 394.238281 L 356.480469 394.878906 L 360.320312 396.800781 L 359.039062 398.078125 L 362.878906 400.640625 L 367.359375 402.558594 L 368 406.398438 L 360.960938 406.398438 L 355.199219 404.480469 L 350.078125 401.28125 L 350.078125 398.71875 L 352.640625 396.160156 Z M 353.28125 394.238281 "/>
<path style=" stroke:none;fill-rule:nonzero;fill:rgb(98.431373%,98.039216%,92.941177%);fill-opacity:1;" d="M 174.71875 350.71875 L 177.921875 350.71875 L 181.761719 353.921875 L 182.398438 355.199219 L 182.398438 359.039062 L 179.199219 361.601562 L 174.71875 362.238281 L 171.519531 360.320312 L 170.238281 358.398438 L 170.238281 354.558594 L 173.441406 351.359375 Z M 174.71875 350.71875 "/>
<path style=" stroke:none;fill-rule:nonzero;fill:rgb(88.235295%,71.764708%,40.392157%);fill-opacity:1;" d="M 117.761719 323.199219 L 121.601562 323.199219 L 122.878906 324.480469 L 122.238281 327.039062 L 115.839844 331.519531 L 108.800781 336 L 106.878906 335.359375 L 106.238281 330.238281 L 109.441406 327.039062 Z M 117.761719 323.199219 "/>
<path style=" stroke:none;fill-rule:nonzero;fill:rgb(18.431373%,21.176471%,27.058825%);fill-opacity:1;" d="M 326.398438 389.761719 L 332.800781 389.761719 L 334.078125 391.039062 L 333.441406 395.519531 L 329.601562 398.71875 L 323.839844 399.359375 L 320.640625 396.800781 L 320.640625 392.320312 L 323.199219 390.398438 Z M 326.398438 389.761719 "/>
<path style=" stroke:none;fill-rule:nonzero;fill:rgb(10.196079%,75.686276%,96.078432%);fill-opacity:1;" d="M 233.601562 161.921875 L 235.519531 162.558594 L 236.160156 165.761719 L 224 173.441406 L 215.679688 178.558594 L 213.121094 177.921875 L 212.480469 175.359375 L 220.800781 170.238281 L 224 169.601562 L 226.558594 166.398438 L 229.761719 165.121094 L 229.761719 163.839844 L 232.960938 162.558594 Z M 233.601562 161.921875 "/>
<path style=" stroke:none;fill-rule:nonzero;fill:rgb(6.666667%,10.980392%,20.784314%);fill-opacity:1;" d="M 112 266.878906 L 113.921875 267.519531 L 114.558594 268.160156 L 116.480469 268.800781 L 114.558594 271.359375 L 118.398438 272.640625 L 116.480469 274.558594 L 113.28125 276.480469 L 112.640625 277.761719 L 110.078125 278.398438 L 106.238281 277.761719 L 105.601562 276.480469 L 99.839844 275.839844 L 103.039062 272.640625 Z M 112 266.878906 "/>
<path style=" stroke:none;fill-rule:nonzero;fill:rgb(92.156863%,35.294119%,3.137255%);fill-opacity:1;" d="M 252.160156 434.558594 L 263.039062 434.558594 L 264.320312 435.839844 L 264.960938 437.761719 L 261.761719 441.601562 L 260.480469 442.238281 L 254.71875 442.238281 L 250.878906 439.679688 L 249.601562 437.121094 L 249.601562 435.199219 Z M 252.160156 434.558594 "/>
<path style=" stroke:none;fill-rule:nonzero;fill:rgb(6.27451%,11.372549%,20.784314%);fill-opacity:1;" d="M 224.640625 300.160156 L 225.28125 302.078125 L 226.558594 302.71875 L 225.921875 305.921875 L 224.640625 305.921875 L 224.640625 307.199219 L 217.601562 311.039062 L 213.761719 313.601562 L 211.199219 313.601562 L 210.558594 314.878906 L 208.640625 312.960938 L 209.28125 310.398438 L 212.480469 309.761719 L 215.039062 307.199219 L 215.679688 303.359375 L 218.878906 304 L 219.519531 302.71875 Z M 224.640625 300.160156 "/>
<path style=" stroke:none;fill-rule:nonzero;fill:rgb(7.450981%,12.156863%,21.176471%);fill-opacity:1;" d="M 270.078125 144 L 270.71875 145.28125 L 270.078125 146.558594 L 273.28125 147.839844 L 274.558594 151.039062 L 273.28125 151.039062 L 273.28125 152.320312 L 263.679688 157.441406 L 262.398438 156.800781 L 262.398438 155.519531 L 263.679688 155.519531 L 264.320312 152.960938 L 260.480469 153.601562 L 260.480469 152.320312 L 259.199219 151.039062 L 268.160156 145.28125 Z M 270.078125 144 "/>
<path style=" stroke:none;fill-rule:nonzero;fill:rgb(5.098039%,55.29412%,80.000001%);fill-opacity:1;" d="M 328.320312 165.761719 L 330.238281 165.761719 L 330.238281 170.878906 L 327.039062 177.28125 L 324.480469 179.839844 L 322.558594 183.679688 L 318.71875 186.238281 L 316.160156 187.519531 L 316.160156 183.679688 L 321.921875 176.640625 L 325.761719 172.160156 L 327.679688 167.039062 L 326.398438 166.398438 Z M 328.320312 165.761719 "/>
<path style=" stroke:none;fill-rule:nonzero;fill:rgb(7.450981%,12.156863%,21.568628%);fill-opacity:1;" d="M 309.121094 194.558594 L 312.320312 195.199219 L 315.519531 200.320312 L 312.320312 203.519531 L 303.359375 208 L 302.71875 206.71875 L 303.359375 205.441406 L 305.28125 205.441406 L 305.28125 204.160156 L 306.558594 203.519531 L 306.558594 202.238281 L 305.28125 202.238281 L 305.28125 200.960938 L 302.71875 199.679688 Z M 309.121094 194.558594 "/>
<path style=" stroke:none;fill-rule:nonzero;fill:rgb(88.627452%,70.588237%,39.215687%);fill-opacity:1;" d="M 96 288.640625 L 99.199219 288.640625 L 99.839844 291.839844 L 95.359375 295.679688 L 88.960938 298.878906 L 86.398438 298.878906 L 85.761719 297.601562 L 85.761719 293.761719 L 88.960938 291.199219 Z M 96 288.640625 "/>
<path style=" stroke:none;fill-rule:nonzero;fill:rgb(6.666667%,63.137257%,87.058824%);fill-opacity:1;" d="M 216.960938 432.640625 L 217.601562 432.640625 L 217.601562 437.121094 L 213.121094 442.238281 L 211.839844 442.878906 L 206.71875 442.878906 L 203.519531 440.960938 L 201.601562 439.039062 L 200.960938 435.199219 L 201.601562 436.480469 L 206.078125 435.199219 L 211.839844 435.839844 L 214.398438 438.398438 L 216.320312 437.761719 Z M 216.960938 432.640625 "/>
<path style=" stroke:none;fill-rule:nonzero;fill:rgb(99.607843%,99.607843%,95.294118%);fill-opacity:1;" d="M 387.839844 350.71875 L 396.160156 351.359375 L 396.800781 353.28125 L 396.160156 364.800781 L 392.960938 362.878906 L 389.761719 357.121094 L 387.839844 353.921875 Z M 387.839844 350.71875 "/>
<path style=" stroke:none;fill-rule:nonzero;fill:rgb(99.607843%,99.215686%,94.117647%);fill-opacity:1;" d="M 295.039062 350.71875 L 304 350.71875 L 304 360.320312 L 298.878906 359.679688 L 295.039062 356.480469 Z M 295.039062 350.71875 "/>
<path style=" stroke:none;fill-rule:nonzero;fill:rgb(96.862745%,91.37255%,56.862748%);fill-opacity:1;" d="M 202.238281 140.160156 L 204.800781 140.800781 L 206.078125 145.28125 L 202.878906 148.480469 L 196.480469 153.601562 L 194.558594 155.519531 L 193.28125 155.519531 L 194.558594 152.320312 L 197.121094 147.199219 L 197.761719 144 Z M 202.238281 140.160156 "/>
<path style=" stroke:none;fill-rule:nonzero;fill:rgb(91.37255%,48.235294%,13.333334%);fill-opacity:1;" d="M 336 243.839844 L 338.558594 244.480469 L 339.839844 247.039062 L 336 251.519531 L 333.441406 252.160156 L 330.238281 254.078125 L 327.039062 254.078125 L 323.839844 255.359375 L 323.839844 253.441406 L 330.878906 247.679688 Z M 336 243.839844 "/>
<path style=" stroke:none;fill-rule:nonzero;fill:rgb(91.764706%,44.705883%,9.803922%);fill-opacity:1;" d="M 234.878906 190.078125 L 235.519531 192 L 217.601562 202.878906 L 204.800781 210.558594 L 192.640625 218.238281 L 190.71875 217.601562 L 191.359375 216.320312 L 195.199219 215.679688 L 195.839844 213.761719 L 198.398438 213.121094 L 199.039062 211.199219 L 202.878906 209.28125 L 207.359375 207.359375 L 208 206.078125 L 209.921875 206.078125 L 210.558594 204.160156 L 220.800781 199.039062 L 228.480469 194.558594 L 229.121094 193.28125 L 234.878906 191.359375 Z M 234.878906 190.078125 "/>
<path style=" stroke:none;fill-rule:nonzero;fill:rgb(89.803922%,72.549021%,40.784314%);fill-opacity:1;" d="M 81.921875 271.359375 L 85.121094 271.359375 L 86.398438 272.640625 L 85.761719 276.480469 L 79.359375 280.960938 L 78.71875 282.238281 L 76.160156 281.601562 L 75.519531 280.960938 L 75.519531 276.480469 L 78.71875 273.28125 Z M 81.921875 271.359375 "/>
<path style=" stroke:none;fill-rule:nonzero;fill:rgb(7.058824%,65.098041%,88.235295%);fill-opacity:1;" d="M 372.480469 196.480469 L 373.121094 196.480469 L 373.761719 200.320312 L 373.761719 202.238281 L 369.921875 208.640625 L 367.359375 212.480469 L 366.078125 215.039062 L 366.71875 200.960938 L 370.558594 197.121094 Z M 372.480469 196.480469 "/>
<path style=" stroke:none;fill-rule:nonzero;fill:rgb(6.666667%,10.980392%,20.784314%);fill-opacity:1;" d="M 318.71875 209.921875 L 320 211.199219 L 318.71875 215.039062 L 318.71875 216.320312 L 323.199219 217.601562 L 321.921875 219.519531 L 321.921875 221.441406 L 318.71875 223.359375 L 315.519531 220.800781 L 315.519531 222.078125 L 312.320312 222.71875 L 312.320312 219.519531 L 311.679688 218.238281 L 315.519531 215.039062 L 316.800781 213.121094 L 318.078125 213.121094 Z M 318.71875 209.921875 "/>
<path style=" stroke:none;fill-rule:nonzero;fill:rgb(5.098039%,7.058824%,14.117648%);fill-opacity:1;" d="M 218.238281 209.28125 L 219.519531 209.921875 L 205.441406 218.878906 L 187.519531 229.761719 L 187.519531 227.839844 L 190.078125 225.28125 L 193.28125 224 L 194.558594 222.71875 L 197.121094 222.71875 L 197.121094 220.800781 L 199.039062 219.519531 L 200.960938 219.519531 L 200.960938 218.238281 L 208.640625 214.398438 L 209.921875 214.398438 L 209.921875 213.121094 Z M 218.238281 209.28125 "/>
<path style=" stroke:none;fill-rule:nonzero;fill:rgb(5.490196%,57.647061%,81.960785%);fill-opacity:1;" d="M 257.28125 220.800781 L 259.199219 220.800781 L 259.199219 222.078125 L 256.640625 224 L 255.359375 224 L 254.078125 227.199219 L 250.878906 227.839844 L 247.679688 229.761719 L 246.398438 229.761719 L 246.398438 231.039062 L 243.839844 231.679688 L 241.921875 231.679688 L 238.078125 232.960938 L 237.441406 231.679688 L 245.121094 227.199219 L 254.71875 221.441406 Z M 257.28125 220.800781 "/>
<path style=" stroke:none;fill-rule:nonzero;fill:rgb(6.27451%,11.372549%,20.784314%);fill-opacity:1;" d="M 203.519531 147.199219 L 205.441406 147.839844 L 206.078125 149.121094 L 202.238281 154.238281 L 198.398438 156.160156 L 195.199219 160 L 192.640625 160.640625 L 192.640625 161.921875 L 190.71875 163.199219 L 188.160156 162.558594 L 199.039062 151.679688 L 201.601562 148.480469 Z M 203.519531 147.199219 "/>
<path style=" stroke:none;fill-rule:nonzero;fill:rgb(7.058824%,11.764706%,21.176471%);fill-opacity:1;" d="M 115.199219 242.558594 L 117.121094 243.199219 L 117.761719 244.480469 L 120.960938 244.480469 L 121.601562 245.761719 L 111.359375 252.160156 L 108.800781 251.519531 L 109.441406 248.960938 L 110.71875 245.121094 Z M 115.199219 242.558594 "/>
<path style=" stroke:none;fill-rule:nonzero;fill:rgb(99.607843%,99.607843%,96.078432%);fill-opacity:1;" d="M 403.199219 367.359375 L 408.960938 367.359375 L 413.441406 369.28125 L 413.441406 371.839844 L 409.601562 372.480469 L 403.839844 372.480469 L 400 371.839844 L 400.640625 368.640625 Z M 403.199219 367.359375 "/>
<path style=" stroke:none;fill-rule:nonzero;fill:rgb(99.607843%,99.215686%,89.803922%);fill-opacity:1;" d="M 127.359375 374.398438 L 132.480469 374.398438 L 134.398438 376.960938 L 133.761719 379.519531 L 132.480469 380.800781 L 130.558594 381.441406 L 129.28125 383.359375 L 126.078125 382.078125 L 125.441406 378.238281 L 126.71875 375.039062 Z M 127.359375 374.398438 "/>
<path style=" stroke:none;fill-rule:nonzero;fill:rgb(91.764706%,44.705883%,9.803922%);fill-opacity:1;" d="M 117.761719 261.761719 L 120.320312 262.398438 L 108.160156 270.078125 L 100.480469 274.558594 L 97.28125 273.28125 L 97.921875 271.359375 L 99.839844 272 L 103.679688 270.078125 L 105.601562 268.160156 L 107.519531 268.160156 L 108.800781 264.960938 L 111.359375 263.679688 L 115.839844 264.320312 L 116.480469 262.398438 Z M 117.761719 261.761719 "/>
<path style=" stroke:none;fill-rule:nonzero;fill:rgb(4.705882%,53.725493%,78.823531%);fill-opacity:1;" d="M 130.558594 299.519531 L 131.839844 300.160156 L 130.558594 304 L 128.640625 305.921875 L 119.679688 311.039062 L 117.761719 311.039062 L 119.039062 307.839844 L 121.601562 304.640625 Z M 130.558594 299.519531 "/>
<path style=" stroke:none;fill-rule:nonzero;fill:rgb(92.156863%,35.294119%,3.137255%);fill-opacity:1;" d="M 302.71875 433.921875 L 311.039062 433.921875 L 311.679688 437.121094 L 309.121094 439.679688 L 302.71875 439.039062 L 300.800781 437.761719 L 301.441406 434.558594 Z M 302.71875 433.921875 "/>
<path style=" stroke:none;fill-rule:nonzero;fill:rgb(17.254902%,25.882354%,34.901962%);fill-opacity:1;" d="M 138.238281 293.121094 L 140.160156 293.761719 L 133.761719 298.238281 L 122.878906 304.640625 L 108.800781 313.601562 L 107.519531 312.960938 L 111.359375 309.761719 L 124.160156 302.078125 L 133.121094 296.320312 L 136.960938 294.398438 Z M 138.238281 293.121094 "/>
<path style=" stroke:none;fill-rule:nonzero;fill:rgb(3.921569%,50.588238%,76.862746%);fill-opacity:1;" d="M 116.480469 232.960938 L 118.398438 233.601562 L 115.839844 235.519531 L 113.921875 241.28125 L 108.160156 241.921875 L 108.160156 240 L 106.878906 240 L 107.519531 237.441406 Z M 116.480469 232.960938 "/>
<path style=" stroke:none;fill-rule:nonzero;fill:rgb(96.862745%,90.588236%,55.686277%);fill-opacity:1;" d="M 106.878906 328.960938 L 114.558594 330.238281 L 118.398438 328.960938 L 115.839844 331.519531 L 108.800781 336 L 106.878906 335.359375 L 106.238281 330.238281 Z M 106.878906 328.960938 "/>
<path style=" stroke:none;fill-rule:nonzero;fill:rgb(92.156863%,35.294119%,3.137255%);fill-opacity:1;" d="M 352 433.921875 L 357.761719 433.921875 L 358.398438 436.480469 L 357.761719 439.039062 L 351.359375 439.039062 L 349.441406 437.761719 L 350.078125 434.558594 Z M 352 433.921875 "/>
<path style=" stroke:none;fill-rule:nonzero;fill:rgb(5.882353%,59.607846%,83.529413%);fill-opacity:1;" d="M 274.558594 209.28125 L 277.761719 209.28125 L 277.121094 211.199219 L 275.839844 211.199219 L 275.199219 212.480469 L 272.640625 213.121094 L 269.441406 216.320312 L 264.960938 217.601562 L 263.679688 219.519531 L 261.121094 218.878906 L 264.320312 215.679688 L 272.640625 210.558594 Z M 274.558594 209.28125 "/>
<path style=" stroke:none;fill-rule:nonzero;fill:rgb(98.039216%,98.039216%,92.54902%);fill-opacity:1;" d="M 192.640625 394.238281 L 195.839844 395.519531 L 193.28125 401.921875 L 195.199219 403.839844 L 193.921875 404.480469 L 188.800781 401.28125 L 189.441406 398.71875 L 191.359375 398.078125 L 192 394.878906 Z M 192.640625 394.238281 "/>
<path style=" stroke:none;fill-rule:nonzero;fill:rgb(90.980393%,51.372552%,17.254902%);fill-opacity:1;" d="M 250.238281 437.761719 L 253.441406 438.398438 L 255.359375 439.039062 L 260.480469 439.039062 L 264.320312 437.761719 L 263.039062 440.320312 L 260.480469 442.238281 L 254.71875 442.238281 L 250.878906 439.679688 Z M 250.238281 437.761719 "/>
<path style=" stroke:none;fill-rule:nonzero;fill:rgb(88.235295%,69.01961%,37.254903%);fill-opacity:1;" d="M 353.28125 426.878906 L 357.761719 427.519531 L 360.960938 430.078125 L 362.238281 433.28125 L 359.679688 431.359375 L 358.398438 432 L 355.839844 430.71875 L 352.640625 430.078125 L 352.640625 428.800781 L 347.519531 432.640625 L 348.800781 429.441406 L 351.359375 427.519531 Z M 353.28125 426.878906 "/>
<path style=" stroke:none;fill-rule:nonzero;fill:rgb(94.509804%,97.254902%,91.764706%);fill-opacity:1;" d="M 125.441406 391.679688 L 126.71875 391.679688 L 124.800781 398.71875 L 121.601562 405.761719 L 117.121094 405.761719 L 119.679688 401.921875 L 122.878906 398.078125 L 124.800781 392.320312 Z M 125.441406 391.679688 "/>
<path style=" stroke:none;fill-rule:nonzero;fill:rgb(5.490196%,56.470591%,81.176472%);fill-opacity:1;" d="M 160.640625 205.441406 L 163.199219 206.078125 L 154.878906 211.199219 L 147.839844 215.679688 L 146.558594 215.679688 L 146.558594 216.960938 L 143.359375 218.238281 L 143.359375 216.320312 L 155.519531 208.640625 Z M 160.640625 205.441406 "/>
<path style=" stroke:none;fill-rule:nonzero;fill:rgb(2.352941%,3.921569%,16.470589%);fill-opacity:1;" d="M 304.640625 200.960938 L 305.28125 202.238281 L 306.558594 202.238281 L 307.199219 204.160156 L 305.28125 204.160156 L 305.28125 205.441406 L 303.359375 205.441406 L 303.359375 208.640625 L 298.878906 211.199219 L 297.601562 210.558594 L 298.878906 207.359375 L 302.078125 204.160156 L 302.71875 202.878906 L 304 202.878906 Z M 304.640625 200.960938 "/>
<path style=" stroke:none;fill-rule:nonzero;fill:rgb(98.823529%,98.823529%,94.509804%);fill-opacity:1;" d="M 330.878906 400 L 334.078125 401.28125 L 332.800781 403.839844 L 330.238281 405.761719 L 327.039062 404.480469 L 327.039062 401.28125 Z M 330.878906 400 "/>
<path style=" stroke:none;fill-rule:nonzero;fill:rgb(20%,22.352941%,27.843139%);fill-opacity:1;" d="M 220.800781 305.28125 L 224 305.28125 L 224.640625 307.199219 L 217.601562 311.039062 L 213.761719 313.601562 L 212.480469 312.960938 L 215.039062 309.761719 L 216.960938 309.761719 L 217.601562 307.839844 Z M 220.800781 305.28125 "/>
<path style=" stroke:none;fill-rule:nonzero;fill:rgb(8.235294%,67.450982%,89.803922%);fill-opacity:1;" d="M 381.441406 189.441406 L 382.71875 189.441406 L 384 192.640625 L 384.640625 197.121094 L 385.28125 210.558594 L 384.640625 218.878906 L 384 218.878906 L 383.359375 199.679688 L 382.71875 192 L 379.519531 192.640625 Z M 381.441406 189.441406 "/>
<path style=" stroke:none;fill-rule:nonzero;fill:rgb(15.294118%,78.431374%,95.686275%);fill-opacity:1;" d="M 84.480469 318.71875 L 88.960938 319.359375 L 88.960938 322.558594 L 87.039062 322.558594 L 89.601562 323.839844 L 87.679688 325.121094 L 85.121094 325.121094 L 84.480469 323.839844 Z M 84.480469 318.71875 "/>
<path style=" stroke:none;fill-rule:nonzero;fill:rgb(6.27451%,10.980392%,20.784314%);fill-opacity:1;" d="M 298.238281 176.640625 L 299.519531 176.640625 L 300.800781 181.761719 L 299.519531 183.039062 L 294.398438 184.320312 L 296.320312 180.480469 L 295.039062 179.199219 L 297.601562 177.921875 Z M 298.238281 176.640625 "/>
<path style=" stroke:none;fill-rule:nonzero;fill:rgb(8.235294%,14.509805%,24.705882%);fill-opacity:1;" d="M 167.679688 151.679688 L 168.960938 152.320312 L 168.320312 155.519531 L 166.398438 157.441406 L 165.761719 159.359375 L 164.480469 159.359375 L 163.839844 163.839844 L 161.921875 164.480469 L 161.28125 165.761719 L 162.558594 160 L 165.761719 154.238281 Z M 167.679688 151.679688 "/>
<path style=" stroke:none;fill-rule:nonzero;fill:rgb(28.235295%,88.627452%,97.254902%);fill-opacity:1;" d="M 205.441406 427.519531 L 208 427.519531 L 207.359375 431.359375 L 202.238281 433.921875 L 200.960938 435.199219 L 201.601562 431.359375 Z M 205.441406 427.519531 "/>
<path style=" stroke:none;fill-rule:nonzero;fill:rgb(29.411766%,90.588236%,97.647059%);fill-opacity:1;" d="M 325.121094 285.441406 L 326.398438 286.078125 L 323.199219 289.921875 L 314.238281 295.679688 L 311.679688 295.039062 L 318.71875 290.558594 L 324.480469 286.078125 Z M 325.121094 285.441406 "/>
<path style=" stroke:none;fill-rule:nonzero;fill:rgb(6.27451%,8.235294%,14.901961%);fill-opacity:1;" d="M 218.238281 209.28125 L 219.519531 209.921875 L 206.71875 218.238281 L 205.441406 218.238281 L 206.71875 215.679688 L 209.921875 214.398438 L 209.921875 213.121094 Z M 218.238281 209.28125 "/>
<path style=" stroke:none;fill-rule:nonzero;fill:rgb(91.764706%,43.921569%,9.019608%);fill-opacity:1;" d="M 234.878906 190.078125 L 235.519531 192 L 218.878906 202.238281 L 218.878906 200.320312 L 227.199219 195.199219 L 229.121094 193.28125 L 234.878906 191.359375 Z M 234.878906 190.078125 "/>
<path style=" stroke:none;fill-rule:nonzero;fill:rgb(6.666667%,61.960787%,86.274511%);fill-opacity:1;" d="M 323.839844 231.039062 L 325.761719 231.679688 L 327.679688 231.039062 L 327.039062 232.960938 L 320 237.441406 L 318.078125 236.800781 L 321.28125 232.960938 Z M 323.839844 231.039062 "/>
<path style=" stroke:none;fill-rule:nonzero;fill:rgb(25.882354%,85.882354%,95.294118%);fill-opacity:1;" d="M 292.480469 303.359375 L 293.761719 304 L 291.839844 305.921875 L 285.441406 307.839844 L 279.039062 307.199219 L 279.039062 306.558594 Z M 292.480469 303.359375 "/>
<path style=" stroke:none;fill-rule:nonzero;fill:rgb(15.294118%,30.19608%,41.568628%);fill-opacity:1;" d="M 190.078125 309.121094 L 192 309.761719 L 189.441406 311.679688 L 182.398438 315.519531 L 177.921875 318.71875 L 176 318.078125 L 179.199219 315.519531 L 183.679688 312.960938 Z M 190.078125 309.121094 "/>
<path style=" stroke:none;fill-rule:nonzero;fill:rgb(3.529412%,47.843137%,74.901962%);fill-opacity:1;" d="M 222.71875 307.199219 L 224.640625 307.839844 L 222.078125 310.398438 L 219.519531 311.039062 L 217.601562 313.601562 L 215.039062 314.238281 L 211.839844 315.519531 L 212.480469 313.601562 Z M 222.71875 307.199219 "/>
<path style=" stroke:none;fill-rule:nonzero;fill:rgb(5.882353%,59.607846%,83.529413%);fill-opacity:1;" d="M 190.71875 186.238281 L 193.28125 186.878906 L 191.359375 188.800781 L 188.160156 190.71875 L 183.039062 193.921875 L 181.761719 193.28125 L 184.960938 190.078125 Z M 190.71875 186.238281 "/>
<path style=" stroke:none;fill-rule:nonzero;fill:rgb(30.588236%,91.37255%,98.039216%);fill-opacity:1;" d="M 251.519531 138.878906 L 252.800781 139.519531 L 249.601562 142.71875 L 241.921875 147.199219 L 240.640625 146.558594 L 243.199219 144 Z M 251.519531 138.878906 "/>
<path style=" stroke:none;fill-rule:nonzero;fill:rgb(6.666667%,62.352943%,86.274511%);fill-opacity:1;" d="M 209.921875 252.160156 L 211.839844 252.160156 L 211.839844 253.441406 L 213.121094 253.441406 L 213.121094 254.71875 L 208 257.921875 L 206.078125 257.921875 L 207.359375 254.71875 L 208.640625 254.71875 Z M 209.921875 252.160156 "/>
<path style=" stroke:none;fill-rule:nonzero;fill:rgb(32.156864%,93.725491%,98.823529%);fill-opacity:1;" d="M 239.359375 146.558594 L 240.640625 146.558594 L 240 148.480469 L 236.800781 150.398438 L 236.160156 151.679688 L 231.039062 154.238281 L 229.761719 153.601562 L 232.960938 150.398438 Z M 239.359375 146.558594 "/>
<path style=" stroke:none;fill-rule:nonzero;fill:rgb(18.431373%,24.313726%,31.764707%);fill-opacity:1;" d="M 138.238281 293.121094 L 140.160156 293.761719 L 133.761719 298.238281 L 127.359375 302.078125 L 126.078125 301.441406 L 129.28125 298.878906 L 135.039062 295.679688 Z M 138.238281 293.121094 "/>
<path style=" stroke:none;fill-rule:nonzero;fill:rgb(4.313726%,5.882353%,13.725491%);fill-opacity:1;" d="M 170.238281 309.121094 L 174.078125 309.121094 L 174.078125 311.039062 L 167.039062 314.878906 L 167.679688 312.320312 L 169.601562 309.761719 Z M 170.238281 309.121094 "/>
<path style=" stroke:none;fill-rule:nonzero;fill:rgb(5.490196%,7.450981%,14.509805%);fill-opacity:1;" d="M 194.558594 222.71875 L 196.480469 222.71875 L 195.199219 225.28125 L 187.519531 229.761719 L 187.519531 227.839844 L 190.078125 225.28125 L 193.28125 224 Z M 194.558594 222.71875 "/>
<path style=" stroke:none;fill-rule:nonzero;fill:rgb(5.490196%,57.254905%,81.568629%);fill-opacity:1;" d="M 170.238281 325.121094 L 172.160156 325.121094 L 172.160156 326.398438 L 165.121094 330.238281 L 163.199219 330.238281 L 163.199219 328.960938 L 164.480469 328.960938 L 164.480469 327.679688 Z M 170.238281 325.121094 "/>
<path style=" stroke:none;fill-rule:nonzero;fill:rgb(4.705882%,54.11765%,79.215688%);fill-opacity:1;" d="M 268.160156 265.601562 L 271.359375 265.601562 L 269.441406 267.519531 L 261.761719 272 L 259.839844 271.359375 L 262.398438 269.441406 L 263.679688 269.441406 L 264.320312 267.519531 L 268.160156 266.878906 Z M 268.160156 265.601562 "/>
<path style=" stroke:none;fill-rule:nonzero;fill:rgb(7.058824%,11.764706%,21.176471%);fill-opacity:1;" d="M 321.28125 195.199219 L 323.839844 195.839844 L 325.761719 197.761719 L 325.761719 199.679688 L 322.558594 199.679688 L 319.359375 196.480469 Z M 321.28125 195.199219 "/>
<path style=" stroke:none;fill-rule:nonzero;fill:rgb(3.921569%,49.803922%,76.47059%);fill-opacity:1;" d="M 376.320312 193.28125 L 378.238281 193.28125 L 375.679688 199.679688 L 373.121094 200.960938 L 373.761719 196.480469 Z M 376.320312 193.28125 "/>
<path style=" stroke:none;fill-rule:nonzero;fill:rgb(4.313726%,52.156866%,78.039217%);fill-opacity:1;" d="M 142.078125 216.960938 L 144 217.601562 L 141.441406 220.160156 L 136.960938 222.71875 L 135.039062 222.71875 L 135.039062 221.441406 Z M 142.078125 216.960938 "/>
<path style=" stroke:none;fill-rule:nonzero;fill:rgb(3.529412%,47.450981%,74.509805%);fill-opacity:1;" d="M 325.761719 172.160156 L 326.398438 173.441406 L 321.28125 179.839844 L 320.640625 181.761719 L 318.078125 183.679688 L 316.800781 183.679688 L 318.078125 181.121094 L 324.480469 174.078125 Z M 325.761719 172.160156 "/>
<path style=" stroke:none;fill-rule:nonzero;fill:rgb(4.313726%,48.627451%,74.509805%);fill-opacity:1;" d="M 161.921875 326.398438 L 165.121094 326.398438 L 165.761719 327.679688 L 164.480469 327.679688 L 164.480469 328.960938 L 163.199219 328.960938 L 163.199219 330.878906 L 159.359375 330.238281 L 159.359375 328.960938 Z M 161.921875 326.398438 "/>
<path style=" stroke:none;fill-rule:nonzero;fill:rgb(98.039216%,97.254902%,87.450981%);fill-opacity:1;" d="M 353.28125 394.238281 L 356.480469 394.878906 L 360.320312 396.800781 L 357.761719 398.078125 L 354.558594 398.078125 L 354.558594 396.800781 L 352.640625 397.441406 Z M 353.28125 394.238281 "/>
<path style=" stroke:none;fill-rule:nonzero;fill:rgb(23.529412%,82.352942%,93.725491%);fill-opacity:1;" d="M 305.28125 298.238281 L 306.558594 298.238281 L 305.921875 300.160156 L 300.160156 302.71875 L 298.878906 303.359375 L 294.398438 303.359375 L 296.320312 302.078125 Z M 305.28125 298.238281 "/>
<path style=" stroke:none;fill-rule:nonzero;fill:rgb(5.098039%,56.078434%,80.784315%);fill-opacity:1;" d="M 373.121094 192.640625 L 374.398438 194.558594 L 374.398438 196.480469 L 373.121094 198.398438 L 370.558594 197.761719 L 367.359375 200.320312 L 368.640625 197.761719 Z M 373.121094 192.640625 "/>
<path style=" stroke:none;fill-rule:nonzero;fill:rgb(98.823529%,97.254902%,88.627452%);fill-opacity:1;" d="M 232.320312 367.359375 L 234.238281 367.359375 L 234.878906 372.480469 L 231.679688 371.199219 L 229.761719 368 Z M 232.320312 367.359375 "/>
<path style=" stroke:none;fill-rule:nonzero;fill:rgb(6.666667%,9.019608%,19.607843%);fill-opacity:1;" d="M 165.121094 306.558594 L 165.761719 308.480469 L 163.199219 311.679688 L 160 311.679688 L 160 309.761719 Z M 165.121094 306.558594 "/>
<path style=" stroke:none;fill-rule:nonzero;fill:rgb(18.82353%,21.568628%,27.058825%);fill-opacity:1;" d="M 124.160156 307.839844 L 125.441406 309.121094 L 121.601562 311.679688 L 120.320312 313.601562 L 117.121094 313.601562 L 116.480469 312.320312 Z M 124.160156 307.839844 "/>
<path style=" stroke:none;fill-rule:nonzero;fill:rgb(4.705882%,54.509807%,79.215688%);fill-opacity:1;" d="M 215.679688 297.601562 L 216.960938 297.601562 L 216.960938 298.878906 L 210.558594 302.71875 L 208 302.078125 L 208.640625 300.800781 L 212.480469 300.160156 L 213.121094 298.238281 Z M 215.679688 297.601562 "/>
<path style=" stroke:none;fill-rule:nonzero;fill:rgb(8.627451%,11.372549%,20.784314%);fill-opacity:1;" d="M 259.839844 156.800781 L 262.398438 158.078125 L 255.359375 162.558594 L 254.078125 161.921875 L 257.28125 158.71875 Z M 259.839844 156.800781 "/>
<path style=" stroke:none;fill-rule:nonzero;fill:rgb(52.549022%,92.156863%,96.078432%);fill-opacity:1;" d="M 416.640625 112.640625 L 417.921875 112.640625 L 416.640625 115.839844 L 412.800781 118.398438 L 411.519531 117.761719 L 412.800781 115.839844 L 414.078125 115.839844 L 414.71875 113.28125 Z M 416.640625 112.640625 "/>
<path style=" stroke:none;fill-rule:nonzero;fill:rgb(5.882353%,7.843138%,14.901961%);fill-opacity:1;" d="M 182.398438 230.398438 L 184.960938 231.039062 L 179.199219 234.878906 L 177.28125 235.519531 L 178.558594 232.960938 L 180.480469 231.039062 Z M 182.398438 230.398438 "/>
<path style=" stroke:none;fill-rule:nonzero;fill:rgb(5.098039%,55.686277%,80.784315%);fill-opacity:1;" d="M 134.398438 222.078125 L 136.320312 223.359375 L 130.558594 227.199219 L 129.28125 227.199219 L 130.558594 224 Z M 134.398438 222.078125 "/>
<path style=" stroke:none;fill-rule:nonzero;fill:rgb(5.882353%,58.039218%,82.352942%);fill-opacity:1;" d="M 372.480469 198.398438 L 374.398438 200.320312 L 373.121094 202.878906 L 370.558594 205.441406 L 370.558594 201.601562 Z M 372.480469 198.398438 "/>
<path style=" stroke:none;fill-rule:nonzero;fill:rgb(91.764706%,45.490196%,10.196079%);fill-opacity:1;" d="M 295.679688 172.800781 L 297.601562 175.359375 L 296.960938 177.921875 L 295.039062 177.28125 L 293.121094 173.441406 Z M 295.679688 172.800781 "/>
<path style=" stroke:none;fill-rule:nonzero;fill:rgb(6.27451%,60.000002%,84.313726%);fill-opacity:1;" d="M 159.359375 440.320312 L 161.28125 440.960938 L 165.761719 440.320312 L 163.199219 442.878906 L 158.078125 442.878906 Z M 159.359375 440.320312 "/>
<path style=" stroke:none;fill-rule:nonzero;fill:rgb(93.725491%,95.686275%,89.019608%);fill-opacity:1;" d="M 125.441406 391.679688 L 126.71875 391.679688 L 124.800781 398.71875 L 123.519531 398.078125 L 124.160156 392.960938 Z M 125.441406 391.679688 "/>
<path style=" stroke:none;fill-rule:nonzero;fill:rgb(5.098039%,55.29412%,80.000001%);fill-opacity:1;" d="M 327.039062 228.480469 L 327.679688 229.761719 L 330.878906 228.480469 L 329.601562 231.039062 L 325.121094 232.320312 L 325.121094 229.761719 Z M 327.039062 228.480469 "/>
<path style=" stroke:none;fill-rule:nonzero;fill:rgb(91.764706%,43.921569%,9.019608%);fill-opacity:1;" d="M 247.679688 255.359375 L 249.601562 256 L 241.28125 261.121094 L 239.359375 260.480469 Z M 247.679688 255.359375 "/>
<path style=" stroke:none;fill-rule:nonzero;fill:rgb(0.784314%,2.352941%,15.294118%);fill-opacity:1;" d="M 264.320312 152.320312 L 265.601562 152.960938 L 262.398438 157.441406 L 259.839844 156.160156 L 261.121094 156.160156 L 261.121094 152.960938 Z M 264.320312 152.320312 "/>
<path style=" stroke:none;fill-rule:nonzero;fill:rgb(18.039216%,25.098041%,32.941177%);fill-opacity:1;" d="M 105.601562 313.601562 L 106.878906 314.238281 L 100.480469 319.359375 L 98.558594 318.71875 L 100.480469 316.800781 Z M 105.601562 313.601562 "/>
<path style=" stroke:none;fill-rule:nonzero;fill:rgb(16.470589%,28.235295%,38.431373%);fill-opacity:1;" d="M 114.558594 307.839844 L 115.839844 307.839844 L 115.839844 309.121094 L 108.800781 313.601562 L 107.519531 312.960938 L 111.359375 309.761719 Z M 114.558594 307.839844 "/>
<path style=" stroke:none;fill-rule:nonzero;fill:rgb(7.058824%,9.019608%,15.686275%);fill-opacity:1;" d="M 131.199219 263.039062 L 132.480469 263.679688 L 126.078125 268.160156 L 124.800781 267.519531 L 128 264.320312 Z M 131.199219 263.039062 "/>
<path style=" stroke:none;fill-rule:nonzero;fill:rgb(5.490196%,58.039218%,81.960785%);fill-opacity:1;" d="M 148.480469 213.121094 L 149.761719 213.761719 L 147.839844 215.679688 L 146.558594 215.679688 L 146.558594 216.960938 L 143.359375 218.238281 L 143.359375 216.320312 Z M 148.480469 213.121094 "/>
<path style=" stroke:none;fill-rule:nonzero;fill:rgb(5.490196%,56.470591%,81.176472%);fill-opacity:1;" d="M 379.519531 188.800781 L 380.800781 189.441406 L 379.519531 192.640625 L 378.238281 193.921875 L 376.320312 193.28125 L 377.601562 190.71875 Z M 379.519531 188.800781 "/>
<path style=" stroke:none;fill-rule:nonzero;fill:rgb(26.274511%,86.274511%,96.470588%);fill-opacity:1;" d="M 157.441406 427.519531 L 159.359375 428.160156 L 158.078125 428.800781 L 158.078125 430.078125 L 154.878906 430.71875 L 154.238281 433.28125 L 153.601562 430.71875 Z M 157.441406 427.519531 "/>
<path style=" stroke:none;fill-rule:nonzero;fill:rgb(98.431373%,96.470588%,83.529413%);fill-opacity:1;" d="M 195.839844 368.640625 L 197.121094 369.28125 L 194.558594 373.121094 L 191.359375 374.398438 L 192.640625 371.199219 Z M 195.839844 368.640625 "/>
<path style=" stroke:none;fill-rule:nonzero;fill:rgb(3.529412%,49.019608%,75.686276%);fill-opacity:1;" d="M 236.800781 232.320312 L 239.359375 232.960938 L 238.71875 234.878906 L 236.160156 236.160156 L 234.238281 234.878906 Z M 236.800781 232.320312 "/>
<path style=" stroke:none;fill-rule:nonzero;fill:rgb(7.450981%,14.509805%,25.490198%);fill-opacity:1;" d="M 170.878906 145.921875 L 173.441406 145.921875 L 172.800781 147.839844 L 171.519531 148.480469 L 170.238281 151.679688 L 168.960938 151.039062 L 169.601562 147.839844 Z M 170.878906 145.921875 "/>
</g>
</svg>
